<svg width="697" height="707" viewBox="0 0 697 707" fill="none" xmlns="http://www.w3.org/2000/svg">
<path d="M697 326.687C695.086 762.287 20.1571 762.249 18.3057 326.665C20.2169 -108.913 695.146 -108.872 697 326.687Z" fill="#6925A5"/>
<path d="M644.027 295.664C645.873 294.866 647.822 303.254 651.384 301.951C657.943 300.576 658.784 303.021 652.757 305.957C649.144 307.11 652.755 314.937 650.805 315.433C648.959 316.231 647.01 307.843 643.448 309.146C636.892 310.521 636.048 308.076 642.075 305.14C643.432 304.456 644.154 302.893 643.831 301.338C643.182 298.215 643.204 295.946 644.027 295.664Z" fill="#FFDA22"/>
<path d="M146.555 173.244C141.234 174.976 144.217 183.668 149.481 181.771C154.799 180.042 151.819 171.35 146.555 173.244Z" fill="#FFDA22"/>
<path d="M622.357 249.964C617.302 251.609 620.134 259.872 625.137 258.068C630.192 256.423 627.361 248.16 622.357 249.964Z" fill="#FFDA22"/>
<path d="M170.969 89.1108C172.815 88.3129 174.764 96.7011 178.326 95.3985C184.882 94.0226 185.726 96.4677 179.699 99.4039C176.086 100.557 179.697 108.384 177.748 108.88C175.901 109.678 173.952 101.29 170.39 102.593C163.834 103.968 162.99 101.523 169.017 98.5871C170.374 97.9032 171.096 96.3401 170.773 94.7852C170.124 91.6617 170.149 89.393 170.969 89.1108Z" fill="#FFDA22"/>
<path d="M467.148 216.566C461.827 218.298 464.811 226.99 470.075 225.093C475.393 223.362 472.409 214.67 467.148 216.566Z" fill="#FFDA22"/>
<path d="M272.64 48.2882C268.782 53.0671 276.734 59.2816 280.442 54.386C284.3 49.6071 276.348 43.3927 272.64 48.2882Z" fill="#FFDA22"/>
<path d="M611.485 401.342C613.331 400.544 615.28 408.932 618.842 407.629C625.398 406.254 626.242 408.699 620.215 411.635C616.602 412.788 620.213 420.615 618.263 421.111C616.417 421.909 614.468 413.521 610.906 414.824C604.35 416.199 603.506 413.754 609.533 410.818C610.89 410.134 611.612 408.571 611.289 407.016C610.64 403.893 610.662 401.624 611.485 401.342Z" fill="#FFDA22"/>
<path d="M599.043 180.463C595.413 181.643 597.447 187.576 601.038 186.281C604.668 185.101 602.635 179.171 599.043 180.463Z" fill="#FFDA22"/>
<path d="M444.306 81.8679C439.251 83.5124 442.083 91.7757 447.086 89.9711C452.141 88.3265 449.307 80.0659 444.306 81.8679Z" fill="#FFDA22"/>
<path d="M544.669 103.07C546.515 102.272 548.464 110.661 552.026 109.358C558.582 107.982 559.426 110.427 553.399 113.363C549.786 114.517 553.397 122.343 551.447 122.84C549.601 123.638 547.652 115.249 544.09 116.552C537.534 117.928 536.69 115.483 542.717 112.547C544.074 111.863 544.796 110.3 544.473 108.745C543.824 105.621 543.846 103.352 544.669 103.07Z" fill="#FFDA22"/>
<path d="M593.225 353.526C587.904 355.257 590.888 363.949 596.152 362.052C601.47 360.324 598.489 351.632 593.225 353.526Z" fill="#FFDA22"/>
<path d="M552.588 209.554C545.828 211.902 549.523 222.667 556.299 220.377C563.058 218.026 559.364 207.261 552.588 209.554Z" fill="#FFDA22"/>
<path d="M376.83 36.3532C378.676 35.5554 380.625 43.9435 384.187 42.6409C390.743 41.265 391.588 43.7101 385.561 46.6464C381.947 47.7997 385.558 55.6261 383.609 56.1227C381.763 56.9205 379.814 48.5324 376.252 49.835C369.696 51.2109 368.851 48.7658 374.878 45.8295C376.236 45.1457 376.958 43.5826 376.635 42.0276C375.986 38.9041 376.007 36.6354 376.83 36.3532Z" fill="#FFDA22"/>
<path d="M423.242 164.726C417.921 166.458 420.905 175.15 426.169 173.253C431.487 171.524 428.506 162.832 423.242 164.726Z" fill="#FFDA22"/>
<path d="M494.429 154.482C490.799 155.662 492.833 161.595 496.424 160.3C500.054 159.12 498.021 153.19 494.429 154.482Z" fill="#FFDA22"/>
<path d="M669.008 456.469C488.641 968.446 -234.155 591.65 79.524 151.698C90.831 137.69 113.508 145.163 114.091 163.155C114.292 169.239 114.656 175.343 115.183 181.454C118.264 217.688 127.738 255.023 142.078 287.764C177.88 370.888 248.484 437.736 333.206 469.419C383.56 488.507 438.312 495.213 491.909 488.879C500.762 487.829 509.702 486.461 518.574 484.672C563.134 475.858 603.916 458.651 639.618 435.033C654.574 425.139 673.886 439.215 669.008 456.469Z" fill="#FFDA22"/>
<g opacity="0.5">
<path d="M78.1611 166.631C89.4708 152.615 112.15 160.089 112.734 178.081C113.334 196.089 115.313 213.799 118.763 231.666C127.92 278.893 146.31 322.242 173.482 361.257C225.478 436.129 308.602 488.195 398.741 502.04C437.861 508.214 478.216 507.359 517.216 499.598C561.777 490.784 602.558 473.576 638.26 449.958C649.459 442.547 663.1 448.58 667.197 459.326C673.582 441.836 653.878 426.037 638.26 436.39C602.558 460.007 561.774 477.215 517.216 486.029C508.345 487.818 499.405 489.185 490.552 490.236C436.954 496.572 382.203 489.864 331.849 470.775C301.248 459.234 272.379 443.226 246.344 423.445C170.702 366.544 121.63 277.376 113.828 182.808C113.301 176.697 112.935 170.594 112.734 164.509C72.3867 75.5397 -13.3486 335.132 2.86672 373.157C4.23496 296.519 31.6868 224.144 78.1611 166.631Z" fill="white"/>
</g>
<g opacity="0.35">
<path d="M562.665 590.88C555.745 613.922 529.156 619.794 515.248 610.885C500.947 601.726 491.527 580.312 489.667 575.848C440.196 578.559 416.816 531.593 435.686 490.789C454.236 491.72 473.264 491.063 491.909 488.881L506.632 510.765C546.894 502.284 568.939 555.457 562.665 590.88Z" fill="#371A45"/>
</g>
<g opacity="0.35">
<path d="M400.098 488.474C402.414 502.428 381.668 515.731 364.451 537.71C342.453 565.794 325.955 589.946 291.458 575.832C254.201 560.592 265.299 522.266 265.299 522.266C265.299 522.266 245.763 512.968 258.534 494.537C272.547 474.309 305.241 493.223 333.209 470.775C354.824 478.936 377.224 484.906 400.098 488.474Z" fill="#371A45"/>
</g>
<g opacity="0.35">
<path d="M321.918 464.93C206.711 529.802 77.2625 404.791 142.081 287.767C176.3 367.135 242.172 431.749 321.918 464.93Z" fill="#371A45"/>
</g>
<path d="M87.2259 434.485C31.6435 475.801 87.815 577.487 147.339 583.251C156.578 584.356 166.128 583.042 174.707 578.996C175.277 578.722 175.961 578.964 176.233 579.533C171.745 586.562 155.375 588.274 146.962 588.055C83.7021 583.837 30.5495 493.109 73.6194 440.783C74.8519 438.718 90.6275 426.892 87.2259 434.485Z" fill="#371A45"/>
<g opacity="0.35">
<path d="M81.6795 148.075C-183.185 500.456 334.023 908.709 614.593 565.422C492.393 683.388 275.515 680.037 157.465 564.312C161.125 563.186 164.554 561.501 167.673 559.265C166.524 558.242 165.384 557.211 164.252 556.171C169.057 554.692 173.472 552.258 177.299 548.855C209.35 501.954 122.135 409.215 80.4742 460.024C31.8091 360.878 39.3154 233.381 94.8055 143.055C90.1876 142.995 85.5073 144.58 81.6795 148.075Z" fill="#371A45"/>
</g>
<g opacity="0.35">
<path d="M508.47 526.07C458.816 524.149 455.111 588.638 505.212 591.064C554.862 592.988 558.568 528.496 508.47 526.07Z" fill="#371A45"/>
</g>
<path d="M310.166 533.039C334.854 534.817 353.472 523.354 351.751 507.441C351.881 474.067 260.1 460.233 262.348 501.012C264.069 516.923 285.478 531.262 310.166 533.039Z" fill="#FFA92C"/>
<path d="M309.87 531.739C331.279 533.986 346.848 527.506 344.644 517.264C344.945 497.764 264.799 481.611 267.112 509.126C269.317 519.365 288.461 529.49 309.87 531.739Z" fill="#FFA92C"/>
<path d="M272.11 483.481C262.636 490.537 262.983 503.763 270.97 511.796C281.064 523.015 296.54 528.309 311.328 529.617C333.092 532.046 361.701 518.154 341.587 494.637C335.886 488.181 328.165 483.66 320.259 480.377C318.601 479.839 316.383 478.841 314.716 478.414C313.779 477.999 310.511 477.771 311.073 476.097C312.759 473.554 327.171 479.15 330.054 480.325C348.36 487.552 365.398 510.309 347.377 527.107C327.112 543.726 295.702 538.738 275.452 524.58C265.128 517.305 255.816 503.489 261.772 490.659C263.637 486.678 266.803 483.478 270.443 481.188C271.917 480.222 273.462 482.412 272.11 483.481Z" fill="#371A45"/>
<path d="M295.96 545.34C319.687 552.809 356.45 544.638 363.308 517.75C363.446 516.458 365.469 516.472 365.594 517.761C366.433 550.184 318.351 564.521 294.695 547.878C293.351 546.988 294.45 544.79 295.96 545.34Z" fill="#371A45"/>
<path d="M356.227 625.472C353.621 678.997 268.277 670.631 262.361 622.332L356.227 625.472Z" fill="#FFDA22"/>
<path d="M357.485 625.51C357.609 675.149 285.855 678.229 266.358 638.994C264.791 637.58 258.175 617.651 263.366 622.177C272.105 662.601 338.077 675.277 353.222 633.249C354.064 630.739 354.656 628.12 354.976 625.436C355.093 623.949 357.447 624.02 357.485 625.51Z" fill="#371A45"/>
<path d="M110.377 320.551C117.466 288.489 90.896 230.105 62.6244 235.948C15.9248 242.206 42.5024 362.839 85.9144 354.036L110.377 320.551Z" fill="#FFDA22"/>
<path d="M57.7786 238.578C42.793 248.982 40.404 269.408 40.5343 286.345C41.5605 309.175 52.0015 333.197 69.9326 347.553C74.5667 350.896 79.9583 353.065 85.7706 353.024C86.3407 353.005 86.8185 353.464 86.8212 354.033C85.7435 356.552 78.8425 355.545 76.3856 355.257C42.0138 345.61 31.0217 299.086 37.5236 267.864C38.7344 261.764 40.6212 255.723 43.6346 250.171C46.6045 244.632 50.94 239.628 56.4646 236.442C57.8274 235.661 59.1197 237.707 57.7786 238.578Z" fill="#371A45"/>
<path d="M119.931 428.229C58.4762 418.292 48.6216 493.932 77.0969 536.165C137.908 633.591 241.987 572.429 184.705 477.071C184.708 477.077 119.931 428.229 119.931 428.229Z" fill="#FFDA22"/>
<path d="M86.5443 433.242C47.8614 460.962 65.3039 520.005 92.0146 550.369C119.295 584.766 178.122 601.219 198.043 551.012C191.381 582.508 157.609 595.886 128.865 585.069C90.2445 571.49 62.6162 532.656 59.0897 492.336C57.0781 469.901 64.4541 443.171 86.5443 433.242Z" fill="#371A45"/>
<path d="M505.079 593.794C453.884 593.238 448.94 528.974 500.187 521.661C525.432 517.435 555.802 539.541 547.283 566.85C546.572 569.173 542.407 578.776 539.793 577.965C539.318 577.623 539.266 576.983 539.586 576.527C543.8 570.171 545.817 562.334 544.28 554.806C537.936 523.487 489.355 518.618 473.919 545.075C465.872 558.084 471.348 575.042 483.776 583.395C489.917 587.829 497.415 590.443 505.185 591.284C506.724 591.393 506.605 593.813 505.079 593.794Z" fill="#371A45"/>
<path d="M557.436 539.886C572.571 561.273 561.845 592.011 539.719 604.019C511.518 621.178 468.923 613.176 453.161 582.942C450.458 577.881 445.753 562.185 449.727 558.323C450.246 558.377 450.634 558.817 450.634 559.327C450.794 567.018 452.996 574.467 456.856 580.89C475.906 611.881 525.426 614.774 549.197 587.905C555.313 581.023 559.203 572.174 559.836 562.972C560.373 555.56 558.679 547.997 555.264 541.148C554.534 539.81 556.63 538.589 557.436 539.886Z" fill="#371A45"/>
<g opacity="0.35">
<path d="M279.538 624.449C282.019 650.978 328.029 661.618 335.367 633.151C345.499 589.531 273.299 572.573 279.538 624.449Z" fill="#371A45"/>
</g>
<path d="M280.678 623.933C284.058 653.152 339.057 655.385 340.555 624.495C329.321 603.764 290.256 603.078 280.678 623.933Z" fill="#FFDA22"/>
<path d="M315.715 591.811C336.48 596.052 349.745 622.828 334.034 639.678C306.745 669.282 251.589 625.643 285.576 596.839C292.713 595.805 269.605 608.893 284.623 629.898C294.496 643.605 317.002 647.703 329.164 635.149C342.274 621.431 330.964 599.954 314.947 594.201C313.519 593.672 314.26 591.414 315.715 591.811Z" fill="#371A45"/>
<g opacity="0.35">
<path d="M165.501 473.576C107.383 408.563 41.9976 476.64 96.8035 539.066C154.919 604.079 220.304 536 165.501 473.576Z" fill="#371A45"/>
</g>
<path d="M148.501 492.287C94.7267 440.629 52.8893 496.518 102.773 545.172C156.545 596.828 198.382 540.939 148.501 492.287Z" fill="#FFDA22"/>
<path d="M139.602 564.814C157.085 567.59 174.758 556.912 179.118 539.596C190.871 498.024 147.803 437.494 102.325 451.931C85.863 458.602 79.5973 477.853 80.9329 494.512C81.6578 506.263 85.4096 517.853 91.0455 528.45C91.7676 529.68 89.8211 530.822 89.08 529.617C60.0074 488.491 80.1809 424.297 137.889 446.873C176.965 463.633 206.155 522.309 174.848 558.005C162.683 572.443 130.415 569.286 139.602 564.814Z" fill="#371A45"/>
<g opacity="0.35">
<path d="M52.5174 288.494C53.8043 305.759 63.42 328.258 79.877 331.974C114.634 335.26 101.041 257.541 75.5496 254.29C60.8518 250.089 50.8451 266.119 52.5174 288.494Z" fill="#371A45"/>
</g>
<path d="M94.8706 300.44C74.6509 262.605 46.553 284.391 64.9483 319.317C85.1652 357.149 113.266 335.366 94.8706 300.44Z" fill="#FFDA22"/>
<path d="M99.008 311.441C99.8306 294.937 94.7159 277.056 82.7221 265.433C76.174 258.82 65.8959 258.008 61.0174 266.86C54.4694 278.277 55.5661 292.79 58.9678 305.118C61.9187 314.478 66.6886 324.153 75.1207 329.642C77.8735 331.363 81.0498 332.454 84.3292 332.25C85.5509 332.128 85.7979 334.06 84.5898 334.253C80.857 334.999 76.907 334.172 73.5543 332.5C54.4124 321.727 46.9332 294.66 51.1031 274.092C56.6846 247.587 81.7556 247.788 94.059 269.65C97.8027 276.003 100.306 282.988 101.571 290.207C102.687 292.174 103.612 318.839 99.008 311.441Z" fill="#371A45"/>
<path d="M343.275 706.987C141.524 708.691 -22.5245 525.842 2.5383 325.36C10.3813 260.13 36.8395 194.108 81.0171 144.995C94.7158 134.354 116.752 144.213 117.819 161.557C118.484 179.207 120.27 197.25 123.598 214.526L119.866 215.413L123.626 214.662C164.502 440.756 427.113 559.243 623.617 440.536C627.084 438.485 630.751 436.221 634.134 434.042C637.793 431.532 642.164 428.742 646.625 428.211C657.98 426.178 670.037 434.107 672.83 445.228C675.882 456.26 667.23 473.324 663.817 484.539C647.977 526.694 624.078 565.232 593.48 598.101C560.17 633.947 519.011 662.457 473.745 681.133L473.715 681.119C472.702 681.537 470.666 682.37 469.624 682.799L469.594 682.783C455.7 688.289 441.45 692.883 426.953 696.531L426.939 696.555C418.735 698.571 410.398 700.395 402.08 701.844L402.029 701.934C382.632 705.103 362.936 707.065 343.275 706.987ZM84.6033 151.918C-110.66 392.745 91.8328 742.447 397.218 694.889L397.278 694.78C414.633 692.189 431.994 687.64 448.549 682.275C456.506 679.616 464.449 676.68 472.149 673.464L473.807 672.587L473.989 672.68C521.71 652.508 564.497 620.967 597.973 581.496C629.041 545.028 652.25 501.644 665.294 455.454C668.571 445.348 659.381 434.528 648.943 435.638C643.266 436.004 638.67 440.618 633.865 443.266C418.771 578.524 131.368 434.306 111.303 181.003C110.752 174.792 110.47 168.583 110.187 162.325C108.64 149.027 93.5702 144.262 84.6033 151.918ZM448.533 682.286C448.533 682.286 448.53 682.286 448.53 682.289L448.533 682.286ZM542.54 633.442C542.535 633.444 542.526 633.45 542.518 633.458L542.54 633.442ZM609.956 566.576C609.945 566.589 609.934 566.605 609.923 566.619L609.956 566.576Z" fill="#371A45"/>
<path d="M378.483 190.026C376.444 216.721 335.831 213.801 337.631 187.093C339.67 160.401 380.286 163.318 378.483 190.026Z" fill="white"/>
<path d="M378.486 190.024C376.444 216.716 335.829 213.804 337.637 187.09C339.928 160.474 379.86 162.963 378.486 190.024Z" fill="white"/>
<path d="M539.79 380.522C547.334 347.534 569.718 312.893 521.414 285.797C478.075 264.133 418.241 258.611 400.815 263.862C371.998 272.548 342.431 345.461 342.431 345.461L539.79 380.522Z" fill="white"/>
<path d="M547.731 353.683C546.387 358.226 541.226 375.667 539.79 380.522L347.494 346.356L342.434 345.458C353.13 320.956 375.359 272.86 400.815 263.862C431.902 255.05 581.701 276.022 547.731 353.683Z" fill="white"/>
<g opacity="0.35">
<path d="M545.708 360.519L539.79 380.525L347.494 346.359L342.849 344.454C343.596 342.66 345.328 338.614 347.836 333.222L378.329 316.728L395.019 283.737C418.545 347.702 530.97 294.825 545.708 360.519Z" fill="#371A45"/>
</g>
<path d="M495.944 279.995L486.255 309.384C485.389 312.009 486.399 314.885 488.722 316.38C497.23 321.859 517.54 333.493 528.334 327.485C556.407 305.441 527.666 284.166 503.969 276.258C500.714 274.955 497.04 276.668 495.944 279.995Z" fill="white"/>
<g opacity="0.35">
<path d="M488.728 316.381C497.23 321.862 517.542 333.493 528.334 327.482C547.761 313.8 540.509 292.359 519.038 283.219C539.258 299.365 524.53 317.238 514.439 317.528C525.787 332.362 497.258 320.964 487.093 314.823C487.517 315.428 488.065 315.96 488.728 316.381Z" fill="#371A45"/>
</g>
<path d="M521.074 332.538C510.563 332.199 478.308 321.488 483.032 308.326C485.663 303.401 491.252 274.926 497.719 273.314C510.202 269.704 540.428 290.918 541.791 299.585C546.316 313.667 536.855 332.731 521.074 332.538ZM499.166 281.056L489.477 310.446C489.094 311.604 489.539 312.872 490.56 313.528C506.781 323.976 520.282 328.085 526.683 324.524C548.032 306.011 531.795 290.274 502.709 279.409C501.319 278.817 499.609 279.615 499.166 281.056Z" fill="#371A45"/>
<path d="M542.494 384.894L337.099 348.405C339.624 342.988 367.13 271.311 399.705 260.193C434.677 250.268 584.559 274.114 551.914 352.28C552.468 353.621 542.584 383.1 542.494 384.894ZM347.82 342.524L537.086 376.15C537.499 374.734 544.457 351.732 544.4 350.785C576.529 278.375 425.786 259.107 401.917 267.533C381.201 273.775 357.425 320.253 347.82 342.524Z" fill="#371A45"/>
<path d="M498.14 309.52C510.161 312.695 527.802 320.88 536.321 307.65C537.453 305.851 539.831 305.311 541.631 306.445C547.877 311.854 535.797 318.104 531.19 319.083C518.973 321.536 508.575 314.315 498.14 309.52Z" fill="#371A45"/>
<g opacity="0.3">
<path d="M555.541 443.123C555.378 442.84 555.218 442.558 555.055 442.276C555.218 442.558 555.378 442.84 555.53 443.12L555.541 443.123Z" fill="#293856"/>
</g>
<path d="M384.67 332.459C404.716 331.154 501.612 321.743 544.926 374.362C580.229 417.247 568.667 482.789 513.462 516.637C489.284 516.659 320.056 491.318 292.289 455.302C267.042 431.942 289.241 372.012 299.272 361.366C312.403 347.436 354.626 334.416 384.67 332.459Z" fill="white"/>
<g opacity="0.35">
<path d="M513.467 516.64C450.509 507.305 208.063 495.128 299.282 361.371C306.39 353.822 322.04 346.538 339.667 341.135C302.049 420.935 350.043 459.389 450.278 490.949C484.178 499.796 481.349 509.131 513.467 516.64Z" fill="#371A45"/>
</g>
<path d="M514.38 520.572C482.5 514.187 279.402 505.194 276.858 425.209C276.744 351.466 319.51 335.955 384.421 328.636C491.937 320.798 575.671 348.777 567.573 446.042C562.575 476.102 542.961 503.462 514.38 520.572ZM384.917 336.283C319.931 345.176 285.945 354.999 284.538 425.312C288.003 495.945 479.316 506.521 512.542 512.7C560.246 484.263 578.104 419.678 541.965 376.799C515.737 343.933 459.528 330.199 384.917 336.283Z" fill="#371A45"/>
<path d="M449.282 478.458C440.008 513.451 416.36 522.591 404.551 498.04C405.254 495.945 406.345 493.424 407.2 490.803C424.2 437.787 428.938 391.928 428.232 332.641C485.09 296.038 465.055 427.879 449.282 478.458Z" fill="white"/>
<path d="M423.31 515.557C409.193 515.264 402.637 504.887 400.435 497.793C401.806 495.557 426.866 432.921 424.366 331.222C430.352 322.939 448.639 315.059 460.356 329.593C481.105 358.856 463.708 513.72 423.31 515.557ZM408.674 497.94C452.276 563.588 489.993 284.459 432.106 334.204C434.136 428.845 412.711 487.731 408.674 497.94Z" fill="#371A45"/>
<g opacity="0.35">
<path d="M398.681 526.616C398.958 527.248 399.186 527.899 399.347 528.545C399.178 527.899 398.956 527.259 398.681 526.616Z" fill="#371A45"/>
</g>
<path d="M516.215 505.308C556.47 496.854 578.519 549.949 572.248 585.428C565.328 608.47 538.737 614.34 524.84 605.433C510.533 596.275 501.113 574.861 499.253 570.394C406.44 570.133 442.935 461.714 473.818 442.279L516.215 505.308Z" fill="white"/>
<g opacity="0.35">
<path d="M534.879 558.098L501.069 574.478C500.206 572.654 499.606 571.227 499.256 570.394C417.753 572.654 431.663 476.309 473.818 442.276C430.577 518.217 457.076 565.409 534.879 558.098Z" fill="#371A45"/>
</g>
<path d="M515.984 504.051C532.237 498.162 551.681 505.858 561.671 519.452C572.837 537.294 577.876 561.096 576.735 582.196C574.048 603.49 550.326 617.936 529.957 611.865C512.471 605.797 502.988 587.667 495.713 571.865L499.351 574.225C468.036 576.244 435.184 553.381 434.934 520.239C434.687 501.27 441.062 482.477 449.955 465.912C455.415 456.018 462.134 445.776 473.034 441.272C474.22 440.786 475.366 442.257 474.605 443.285C469.067 452.762 462.305 460.566 456.71 469.741C448.297 484.93 442.503 502.447 442.596 519.924C442.864 550.195 473.639 569.137 501.77 566.516C508.331 581.102 516.38 598.47 532.123 604.516C547.991 609.205 566.93 597.979 569.126 581.27C570.261 563.669 564.723 532.022 551.176 519.902C536.168 505.443 509.984 508.564 515.984 504.051Z" fill="#371A45"/>
<g opacity="0.35">
<path d="M498.145 570.215C498.362 570.207 500.884 572.144 501.102 572.136C500.743 572.844 507.623 594.484 523.727 605.244C539.171 616.12 571.96 604.158 572.077 577.851C553.133 612.307 506.159 585.227 534.632 556.684C527.587 563.357 513.313 568.367 498.145 570.215Z" fill="#371A45"/>
</g>
<path d="M499.098 566.562C511.82 566.874 525.027 563.968 535.759 556.852C527.332 565.221 516.117 570.391 504.644 573.192C493.137 577.46 492.653 566.874 499.098 566.562Z" fill="#371A45"/>
<path d="M477.062 536.383C450.734 537.471 429.453 502.089 440.277 499.066C442.145 498.816 443.836 500.116 444.091 501.967C452.955 543.517 505.948 530.285 524.932 503.343C525.975 501.788 528.084 501.373 529.639 502.415C536.627 512.442 494.974 537.588 477.062 536.383Z" fill="#371A45"/>
<g opacity="0.35">
<path d="M455.819 449.616C452.735 469.104 442.652 508.955 426.616 511.484C410.607 513.772 405.015 499.289 404.553 498.043C405.267 495.943 406.353 493.43 407.203 490.803C415.801 465.793 421.401 437.334 424.632 410.71C429.556 422.818 419.604 475.961 425.959 471.983C438.059 464.406 438.966 444.181 442.897 441.334C446.513 438.715 440.304 469.703 441.553 479.712C441.985 483.15 450.639 466.311 455.819 449.616Z" fill="#371A45"/>
</g>
<path d="M354.802 423.814C335.199 461.771 221.034 495.356 277.222 502.2C277.222 502.2 257.589 556.803 300.021 566.844C332.278 574.478 338.948 541.457 362.045 522.941C377.965 510.181 397.055 487.359 400.538 470.447L354.802 423.814Z" fill="white"/>
<g opacity="0.35">
<path d="M384.372 500.295C377.501 508.947 369.438 517.023 362.048 522.944C338.948 541.455 332.278 574.481 300.026 566.844C257.594 556.803 277.225 502.2 277.225 502.2C273.725 503.275 252.205 500.977 267.449 486.632C261.756 498.073 284.137 493.549 285.095 495.888C286.83 500.152 266.086 547.037 309.368 552.755C333.095 555.889 331.643 529.232 361.375 506.621C378.158 493.853 407.208 463.82 384.372 500.295Z" fill="#371A45"/>
</g>
<path d="M355.285 424.148C341.017 449.983 314.227 465.839 288.594 478.599C281.009 482.947 271.429 486.089 266.776 493.465C262.323 500.298 279.386 498.065 282.695 498.04C276.595 515.327 271.711 538.068 284.183 553.563C292.311 562.562 306.93 566.557 318.359 562.101C334.851 553.938 341.85 534.586 355.891 522.635C370.301 511.202 382.868 497.563 393.138 482.301C395.717 478.526 398.013 474.613 399.965 470.328C400.172 469.747 401.16 469.929 401.116 470.564C399.479 492.694 382.357 510.133 366.84 524.426C349.408 537.05 341.777 560.535 321.462 569.637C311.613 573.637 300.436 572 290.924 567.919C265.198 556.806 265.82 523.59 273.617 500.903L277.526 506.019C255.344 507.981 252.094 491.232 269.585 480.217C289.145 468.083 310.272 459.226 328.99 445.956C338.212 439.505 346.777 432.129 354.319 423.481C354.724 422.976 355.652 423.54 355.285 424.148Z" fill="#371A45"/>
<path d="M370.076 519.289C368.202 519.289 366.682 517.769 366.682 515.897C365.819 469.101 317.409 462.564 318.728 453.79C321.299 446.328 372.557 470.179 373.472 515.894C373.469 517.772 371.949 519.289 370.076 519.289Z" fill="#371A45"/>
<path d="M171.75 436.998C198.909 460.154 238.116 471.275 274.043 466.024C460.624 435.839 401.912 156.354 217.158 210.83C120.08 241.191 92.5466 373.184 171.75 436.998Z" fill="white"/>
<path d="M255.881 467.644C128.148 468.138 77.113 302.915 180.321 229.308C232.13 190.349 311.341 196.542 355.079 244.654C435.029 327.021 369.595 469.638 255.881 467.644ZM171.997 436.699C199.894 460.168 237.885 470.727 273.991 465.641C458.083 434.135 404.632 163.516 221.77 209.793C122.681 236.754 90.9421 371.469 171.997 436.699Z" fill="#371A45"/>
<g opacity="0.35">
<path d="M390.021 338.53C385.189 465.725 218.811 514.572 147.537 410.341C266.051 501.31 423.448 358.728 341.114 232.363C372.236 257.088 391.547 295.637 390.021 338.53Z" fill="#371A45"/>
</g>
<path d="M255.881 470.227C224.658 470.292 193.737 459.288 169.847 439.277C71.8084 357.469 136.42 197.809 262.35 201.088C440.09 209.622 431.288 466.74 255.881 470.227ZM173.653 434.715C201.002 457.722 238.241 468.067 273.638 463.082C454.117 432.213 401.809 166.903 222.5 212.276C125.366 238.697 94.1809 370.758 173.653 434.715Z" fill="#371A45"/>
<path d="M255.878 471.09C224.458 471.158 193.338 460.078 169.293 439.939C70.6357 357.613 135.625 196.936 262.367 200.227C441.235 208.811 432.412 467.579 255.878 471.09ZM174.204 434.053C201.371 456.905 238.357 467.177 273.522 462.227C452.8 431.562 400.867 168.034 222.745 213.101C126.256 239.346 95.2641 370.517 174.204 434.053Z" fill="#371A45"/>
<path d="M200.198 455.028C292.145 476.306 376.713 401.586 348.186 313.216C306.205 197.839 108.086 224.941 129.59 371.282C133.912 401.733 173.246 444.089 200.198 455.028Z" fill="#371A45"/>
<path d="M348.184 313.219C377.484 401.771 288.988 479.47 197.641 453.663C282.804 436.11 343.778 357.48 316.616 267.577C330.961 279.289 342.189 294.668 348.184 313.219Z" fill="#220F2D"/>
<path d="M255.879 470.648C182.178 472.208 117.512 406.506 121.826 332.625C124.538 284.231 142.471 251.696 190.376 233.856C295.704 189.929 413.569 297.311 357.536 403.195C338.701 437.985 299.187 470.683 255.879 470.648ZM173.925 434.392C201.116 457.266 238.113 467.584 273.321 462.699C376.477 437.489 399.488 288.472 297.979 243.981C158.785 185.744 67.3318 334.443 173.925 434.392Z" fill="#371A45"/>
<path d="M231.877 462.501C220.956 462.504 209.836 461.234 198.838 458.648C170.48 447.036 130.369 403.654 125.884 372.275C108.094 272.016 210.368 209.712 294.613 249.321C410.317 303.905 351.319 468.458 231.877 462.501ZM201.553 451.407C400.484 486.724 394.924 197.782 198.521 252.868C105.979 288.633 113.554 410.46 201.553 451.407Z" fill="#371A45"/>
<path d="M400.894 286.103C426.472 340.506 366.256 374.918 339.361 317.884C314.333 261.208 375.38 231.541 400.894 286.103Z" fill="white"/>
<g opacity="0.35">
<path d="M400.894 286.103C426.475 340.522 366.253 374.908 339.361 317.887C353.654 327.222 360.701 292.774 361.462 290.711C361.462 290.711 374.59 282.513 391.856 272.008C395.334 276.03 398.418 280.768 400.894 286.103Z" fill="#371A45"/>
</g>
<path d="M377.81 351.507C334.613 352.28 311.947 274.611 348.735 256.353C370.879 245.476 394.245 262.35 404.374 284.489C418.192 314.562 408.134 350.457 377.81 351.507ZM362.675 260.608C322.45 262.605 336.054 333.531 369.098 342.332C421.61 354.674 406.421 260.149 362.675 260.608Z" fill="#371A45"/>
<path d="M410.952 302.209C413.265 322.264 402.164 338.001 386.152 337.355C351.973 337.911 336.795 265.381 377.775 264.724C393.784 265.37 408.636 282.152 410.952 302.209Z" fill="white"/>
<path d="M387.119 337.775C360.343 338.891 340.449 292.133 360.384 271.577C380.65 251.81 408.669 275.46 411.348 302.163C413.504 319.585 404.855 337.463 387.119 337.775ZM376.808 265.107C359.55 265.449 351.292 282.855 353.371 299.827C358.261 344.405 414.383 352.126 410.55 302.255C408.161 282.06 393.189 265.194 376.808 265.107Z" fill="#371A45"/>
<g opacity="0.35">
<path d="M364.508 326.617C360.05 321.154 357.102 314.437 355.723 307.479C378.318 330.853 403.576 301.211 396.333 276.038C423.519 300.467 398.945 362.685 364.508 326.617Z" fill="#371A45"/>
</g>
<path d="M388.976 340.777C346.517 341.07 331.333 248.844 382.775 260.852C414.842 269.531 428.625 339.021 388.976 340.777ZM374.425 267.099C344.657 269.332 358.899 326.12 383.044 332.079C405.354 338.161 410.952 310.502 401.268 289.346C395.171 276.855 386.353 267.767 374.425 267.099Z" fill="#371A45"/>
<g opacity="0.5">
<path d="M232.564 262.073C180.66 289.509 124.437 340.755 184.236 418.21C164.296 411.505 149.606 397.049 143.172 375.925C143.161 375.925 143.161 375.914 143.166 375.895C118.351 301.121 189.728 254.391 232.564 262.073Z" fill="white"/>
</g>
<g opacity="0.5">
<path d="M285.73 308.934C302.16 329.954 330.176 308.483 313.904 287.243C297.474 266.222 269.458 287.694 285.73 308.934Z" fill="white"/>
</g>
<g opacity="0.5">
<path d="M317.118 332.361C324.609 340.427 335.416 330.652 327.961 322.47C320.471 314.407 309.664 324.18 317.118 332.361Z" fill="white"/>
</g>
<g opacity="0.35">
<path d="M378.486 190.024C371.743 228.428 317.841 201.093 344.766 172.998C344.777 172.998 344.777 172.987 344.777 172.987C350.361 167.996 359.616 166.558 366.582 169.95C368.631 178.751 363.381 188.235 355.505 188.575C352.864 188.737 352.126 192.268 354.531 193.372C363.262 197.611 374.571 193.128 378.111 184.409C378.486 186.211 378.619 188.1 378.486 190.024Z" fill="#371A45"/>
</g>
<g opacity="0.35">
<path d="M344.777 172.979C344.777 172.987 344.782 172.995 344.766 172.998C344.459 173.247 344.171 173.516 343.884 173.793C344.171 173.508 344.47 173.239 344.777 172.979Z" fill="#371A45"/>
</g>
<path d="M358.095 212.865C324.88 211.929 326.612 162.919 359.8 164.322C390.635 167.152 389.019 212.214 358.095 212.865ZM358.033 171.92C336.86 172.368 335.761 203.218 356.866 205.153C379.594 206.113 380.766 172.555 358.033 171.92Z" fill="#371A45"/>
<path d="M360.908 174.062C360.723 180.946 356.01 185.21 350.212 180.059C345.727 176.564 336.679 167.709 336.947 180.615C337.273 196.778 346.378 231.826 346.378 231.826L180.017 221.671C190.026 175.736 218.341 94.4273 294.955 99.7706C351.458 104.677 362.241 157.182 360.908 174.062Z" fill="#FF0660"/>
<g opacity="0.5">
<path d="M360.908 174.061C360.84 174.962 360.734 175.758 360.601 176.439C358.098 154.65 343.175 113.96 294.955 109.773C222.05 105.684 195.437 176.699 182.604 221.823L180.017 221.668C190.026 175.733 218.341 94.4243 294.955 99.7677C351.458 104.677 362.241 157.182 360.908 174.061Z" fill="white"/>
</g>
<g opacity="0.35">
<path d="M360.908 174.062C360.723 180.946 356.01 185.21 350.212 180.059C345.727 176.564 336.679 167.709 336.947 180.615C337.273 196.778 346.378 231.826 346.378 231.826L180.017 221.671C180.017 221.671 181.944 210.374 187.043 194.653C254.874 156.099 307.81 181.212 322.811 179.437C339.382 177.484 307.085 178.862 314.352 167.576C319.594 159.432 343.609 155.57 354.946 172.501C356.268 174.479 358.834 176.813 360.908 174.062Z" fill="#371A45"/>
</g>
<path d="M346.378 235.655C346.327 235.87 179.897 225.354 179.783 225.495C177.576 225.405 175.809 223.202 176.238 221.023C179.349 178.129 231.37 81.9739 295.297 95.9631C337.444 94.7908 371.93 147.804 364.011 178.599C360.772 187.739 354.74 188.067 347.85 183.082C345.922 181.557 343.27 179.196 340.919 177.956C338.378 196.295 356.659 236.841 346.378 235.655ZM184.643 218.114L341.386 227.679C339.754 217.397 318.796 150.384 351.124 175.874C352.082 176.878 355.432 178.968 355.557 178.547C365.124 151.833 333.282 102.601 294.627 103.597C238.04 91.2928 190.414 172.93 184.643 218.114Z" fill="#371A45"/>
<path d="M359.306 251.351C316.41 226.863 214.253 219.031 162.447 246.043C162.352 241.848 164.396 214.132 178.964 207.394C228.72 167.516 372.921 184.322 359.306 251.351Z" fill="white"/>
<g opacity="0.35">
<path d="M359.306 251.351C316.41 226.863 214.253 219.031 162.447 246.043C162.281 241.861 164.448 214.132 178.961 207.394C154.4 253.533 218.195 210.762 270.454 216.719C321.802 219.446 360.533 253.335 354.235 221.671C360.452 232.135 359.32 251.387 359.306 251.351Z" fill="#371A45"/>
</g>
<path d="M362.789 257.123C310.144 229.357 220.375 221.921 158.502 251.636C153.67 201.09 202.946 183.291 260.054 181.389C335.359 186.746 368.167 209.234 362.789 257.123ZM252.561 223.332C294.586 223.454 341.98 239.783 355.53 245.596C366.348 177.058 165.067 168.157 166.731 240.437C181.019 235.492 219.533 223.332 252.561 223.332Z" fill="#371A45"/>
<path d="M318.001 170.962C323.952 161.972 338.37 164.981 344.345 172.531C346.414 174.965 342.928 178.414 340.517 176.379C334.333 171.614 326.322 166.599 318.565 171.494C318.232 171.739 317.781 171.307 318.001 170.962Z" fill="#371A45"/>
<g opacity="0.5">
<path d="M241.004 135.638C250.045 122.433 265.448 118.316 276.839 120.061C287.962 121.768 280.61 128.194 270.509 135.969C263.404 141.437 254.456 150.333 245.318 149.597C236.177 148.864 238.352 139.513 241.004 135.638Z" fill="white"/>
</g>
<path d="M185.745 241.175C173.075 231.4 184.236 201.381 184.108 201.655C185.338 198.366 190.488 200.341 189.174 203.614C189.092 203.823 181.219 224.559 188.123 237.158C189.141 238.898 187.74 241.224 185.745 241.175Z" fill="#371A45"/>
<path d="M213.202 234.38C197.085 218.749 212.608 182.824 216.927 189.058C221.105 194.889 203.785 205.888 215.635 230.467C216.55 232.209 215.154 234.426 213.202 234.38Z" fill="#371A45"/>
<path d="M244.786 230.1C243.643 230.1 242.579 229.373 242.204 228.225C235.235 206.83 241.916 185.828 242.204 184.946C243.247 181.6 248.5 183.286 247.368 186.623C247.303 186.824 240.961 206.873 247.368 226.542C247.96 228.257 246.589 230.13 244.786 230.1Z" fill="#371A45"/>
<path d="M276.478 232.087C275.124 232.087 273.951 231.074 273.785 229.696C270.707 206.716 277.657 172.127 282.378 187.435C282.318 187.63 276.554 207.137 279.177 229.053C279.38 230.654 278.091 232.1 276.478 232.087Z" fill="#371A45"/>
<path d="M298.577 235.213C296.424 235.272 295.037 232.575 296.41 230.868C309.343 213.685 304.584 193.166 304.533 192.96C303.656 189.562 309.034 188.241 309.81 191.685C309.857 191.025 315.623 221.15 298.577 235.213Z" fill="#371A45"/>
<path d="M325.605 242.011C316.271 240.795 338.429 226.013 329.243 203.563C327.85 200.341 332.967 198.208 334.262 201.492C334.488 200.529 343.197 228.741 325.605 242.011Z" fill="#371A45"/>
</svg>
