<svg width="657" height="749" viewBox="0 0 657 749" fill="none" xmlns="http://www.w3.org/2000/svg">
<path d="M652.571 744.565H4.44336C4.44336 725.233 6.13252 705.83 9.65034 686.569C15.8186 652.571 27.5894 619.011 45.2724 587.128C72.9305 537.373 111.723 497.749 156.836 469.642C164.079 465.093 171.511 460.879 179.079 456.954C219.816 435.816 264.648 423.499 310.511 420.941C310.917 420.919 311.32 420.873 311.726 420.86C314.526 420.71 317.326 420.594 320.162 420.535C325.762 420.373 331.365 420.373 336.954 420.513C375.006 421.461 413.289 429.171 450.034 444.117C462.163 449.026 474.152 454.732 485.875 461.272C488.408 462.673 490.909 464.086 493.374 465.578C494.878 466.445 496.36 467.361 497.808 468.264C596.86 528.853 652.467 635.124 652.571 744.565Z" fill="#FFD243"/>
<path d="M36.2814 696.4C42.4496 662.402 54.2205 628.842 71.9034 596.959C99.5641 547.206 138.354 507.58 183.467 479.473C190.71 474.924 198.142 470.71 205.71 466.785C246.448 445.647 291.279 433.33 337.142 430.772C337.548 430.749 337.951 430.704 338.357 430.691C341.157 430.541 343.957 430.425 346.793 430.366C352.393 430.204 357.996 430.204 363.586 430.343C392.677 431.069 421.902 435.763 450.476 444.604C449.063 444.008 447.648 443.422 446.23 442.848C409.487 427.903 371.202 420.193 333.153 419.244C327.563 419.105 321.963 419.105 316.36 419.267C313.524 419.325 310.724 419.439 307.924 419.592C307.519 419.604 307.115 419.65 306.71 419.673C260.846 422.23 216.012 434.547 175.277 455.686C167.709 459.61 160.277 463.824 153.034 468.373C107.924 496.481 69.1313 536.107 41.4706 585.86C23.7877 617.74 12.0168 651.3 5.84858 685.301C2.33076 704.564 0.641602 723.965 0.641602 743.297H31.2849C31.8074 727.646 33.4382 711.977 36.2814 696.4Z" fill="#FCAC38"/>
<path d="M463.513 568.085C465.622 552.609 439.438 536.258 405.029 531.565C370.62 526.872 341.015 535.613 338.906 551.089C336.796 566.566 362.98 582.916 397.389 587.61C431.799 592.303 461.403 583.561 463.513 568.085Z" fill="#FFD243"/>
<path d="M615.555 744.56H539.253C551.486 723.036 568.684 708.519 584.691 708.479C600.535 708.438 612.161 723.077 615.555 744.56Z" fill="#FCAC38"/>
<path d="M183.185 578.273C200.934 577.134 214.534 563.935 213.564 548.79C212.593 533.646 197.418 522.292 179.669 523.431C161.921 524.569 148.32 537.769 149.291 552.913C150.262 568.058 165.437 579.411 183.185 578.273Z" fill="#FCAC38"/>
<path d="M195.289 578.377C207.821 573.737 214.946 561.777 211.204 551.663C207.462 541.549 194.269 537.112 181.737 541.751C169.205 546.391 162.079 558.351 165.822 568.465C169.564 578.579 182.757 583.017 195.289 578.377Z" fill="#FFD243"/>
<path d="M182.384 581.042C168.066 583.008 151.756 575.565 146.074 561.599C139.683 546.536 148.459 529.68 162.421 522.82C182.044 512.269 212.104 520.453 216.821 544.088C217.856 549.565 217.126 555.241 214.714 560.211C213.953 561.847 212.898 563.306 211.926 564.777C211.559 565.333 210.81 565.488 210.255 565.12C209.705 564.76 209.56 564.034 209.887 563.484C212.895 557.707 213.745 551.09 211.904 545.232C206.374 526.786 181.762 521.308 166.152 529.964C148.007 539.529 146.239 561.563 164.12 572.614C169.401 575.935 175.736 577.698 182.259 578.048C184.081 578.13 184.177 580.814 182.384 581.042Z" fill="#371A45"/>
<path d="M223.012 531.339C232.376 542.18 233.743 558.922 226.954 571.589C220.42 584.548 207.33 593.298 193.449 596.485C179.612 599.648 164.5 597.779 152.344 590.277C140.261 583.196 131.354 569.633 132.115 555.446C132.208 553.975 134.357 553.914 134.529 555.37C135.371 561.758 137.811 567.713 141.524 572.688C158.763 595.315 196.019 595.5 215.264 575.415C221.511 568.834 225.472 560.043 225.455 550.9C225.505 544.775 223.715 538.623 220.557 533.057C219.657 531.497 221.851 529.959 223.012 531.339Z" fill="#371A45"/>
<path d="M94.1466 624.943C136.414 628.898 157.888 674.353 146.985 712.721C143.723 725.096 137.682 736.624 129.365 745.976C128.848 746.557 127.958 746.61 127.377 746.093C126.872 745.644 126.768 744.905 127.093 744.339C133.086 733.811 137.365 722.574 139.434 711.036C146.102 675.675 129.591 639.02 93.5024 628.36C91.552 627.799 92.0745 624.768 94.1466 624.943Z" fill="#371A45"/>
<path d="M118.931 710.539C115.964 725.157 107.769 737.172 97.0506 744.56H47.1315C32.0128 733.575 23.9576 712.921 28.2591 691.638C33.9099 663.652 58.801 645.198 83.8493 650.407C108.877 655.638 124.582 682.553 118.931 710.539Z" fill="#FCAC38"/>
<path d="M113.483 720.522C108.588 731.241 101.053 739.484 92.4448 744.565H65.2939C51.7654 729.376 48.4657 704.141 58.6387 681.81C65.2128 667.433 76.0553 657.084 88.1509 652.152C91.2071 652.802 94.2151 653.887 97.0963 655.427C117.592 666.286 124.929 695.423 113.483 720.522Z" fill="#FFD243"/>
<path d="M39.4517 745.357C34.5034 742.871 30.7066 738.162 29.0073 732.923C28.5609 731.512 30.4099 730.437 31.4117 731.497C33.253 733.362 34.8534 735.255 36.5502 737.063C38.0593 738.723 40.1821 740.882 41.5872 742.625C42.7767 744.05 41.0952 746.161 39.4517 745.357Z" fill="#371A45"/>
<path d="M28.6446 682.391C39.2843 655.382 72.5654 638.78 98.9934 654.471C121.516 667.846 126.38 697.745 115.142 720.2C113.448 723.828 111.332 727.23 108.928 730.391C104.081 736.68 98.0017 741.988 91.0802 745.573C89.5762 746.329 88.2345 744.238 89.5812 743.206C106.564 730.305 116.298 707.474 111.198 686.549C109.445 679.207 105.702 672.184 100.125 667.037C85.9747 653.35 63.5641 655.24 48.3109 666.278C41.6811 670.934 36.2256 676.972 31.749 683.959C30.666 685.752 27.8381 684.357 28.6446 682.391Z" fill="#371A45"/>
<path d="M269.873 746.298C262.193 739.042 257.726 729.097 254.982 719.089C254.107 715.775 253.443 712.414 253.128 709.001C253.065 708.314 253.569 707.708 254.257 707.644C254.784 707.596 255.269 707.888 255.492 708.334L259.89 717.239C264.181 725.819 269.038 734.095 274.9 741.64C277.433 744.979 272.985 749.076 269.873 746.298Z" fill="#371A45"/>
<path d="M455.939 687.749C460.271 707.489 457.055 729.627 444.609 745.91C441.936 749.452 436.567 745.839 438.852 742.026C441.368 737.969 443.717 733.897 445.667 729.698C449.596 721.189 451.475 711.764 452.639 702.456C453.182 697.699 453.481 692.881 453.54 688.003C453.542 686.597 455.65 686.364 455.939 687.749Z" fill="#371A45"/>
<path d="M386.044 744.56H321.531C304.011 734.547 291.416 716.493 289.174 694.87C285.46 659.172 311.379 627.249 347.067 623.535C382.755 619.841 414.669 645.766 418.382 681.444C421.106 707.832 407.663 732.164 386.044 744.56Z" fill="#FCAC38"/>
<path d="M421.126 704.42C418.28 721.44 407.823 735.676 393.432 744.56H322.379C309.479 736.523 300.173 724.307 296.359 710.336C305.966 679.402 339.192 659.05 374.497 663.896C394.439 666.661 411.093 676.857 421.692 691.014C422.054 695.395 421.895 699.899 421.126 704.42Z" fill="#FFD243"/>
<path d="M362.097 624.26C390.021 626.607 415.972 649.069 419.516 677.542C423.178 700.916 410.694 725.099 390.818 737.383C361.815 756.119 320.618 750.357 298.954 723.107C280.38 700.548 281.141 667.181 301.581 646.114C302.781 644.891 304.665 646.558 303.613 647.89C299.545 653.032 296.354 658.791 294.244 664.88C290.054 676.954 290.165 690.448 294.923 702.276C312.332 746.301 376.262 752.493 402.667 713.786C417.471 692.381 413.943 663.47 395.363 645.317C386.397 636.245 374.431 630.176 361.615 627.573C359.553 627.157 359.994 624.082 362.097 624.26Z" fill="#371A45"/>
<path d="M451.947 566.693C463.32 559.208 471.781 549.083 475.864 536.812C483.265 514.575 474.246 491.681 454.881 472.643C442.177 460.153 424.867 449.884 404.468 443.848C352.976 428.611 301.3 446.113 289.044 482.941C284.484 496.643 286.026 511.092 292.41 524.619C303.187 547.444 328.108 566.338 360.44 575.905L451.947 566.693Z" fill="#FFD243"/>
<path d="M474.215 536.261C480.15 515.366 470.241 494.129 455.622 479.26C426.064 449.171 379.455 436.318 338.519 445.969C318.153 450.962 298.439 463.19 290.373 483.385C290.087 484.108 289.265 484.461 288.545 484.169C287.878 483.9 287.533 483.177 287.715 482.499C289.194 477.042 291.586 471.781 294.774 467.026C304.384 452.644 320.139 443.27 336.455 438.452C388.723 422.763 460.89 448.942 478.745 503.417C480.346 508.981 481.205 514.796 481 520.583C480.827 526.367 479.608 532.075 477.515 537.362C477.163 538.258 476.151 538.694 475.255 538.342C474.421 538.007 473.985 537.106 474.215 536.261Z" fill="#371A45"/>
<path d="M455.374 522.213C460.135 492.945 431.358 463.906 391.099 457.353C350.839 450.8 314.343 469.215 309.582 498.484C304.821 527.752 333.598 556.791 373.857 563.344C414.117 569.897 450.613 551.482 455.374 522.213Z" fill="#FCAC38"/>
<path d="M439.913 500.744C441.653 479.005 415.123 459.144 380.656 456.384C346.189 453.624 316.838 469.009 315.098 490.749C313.358 512.488 339.888 532.348 374.355 535.108C408.822 537.868 438.173 522.483 439.913 500.744Z" fill="#FFD243"/>
<path d="M330.472 468.236C313.555 480.267 307.6 500.804 317.199 519.428C332.516 548.639 368.919 562.679 400.673 560.518C425.706 559.094 453.583 543.213 451.14 515.169C447.957 488.139 423.038 469.728 398.771 461.112C397.11 460.536 397.861 458.015 399.565 458.426C426.554 465.037 454.699 484.879 458.833 514.339C462.059 538.372 444.5 558.059 422.762 565.323C402.172 572.619 379.14 571.201 358.82 563.976C332.214 554.497 305.228 531.421 306.073 500.928C306.458 493.472 308.822 486.153 312.87 480.021C316.862 473.934 322.376 469.002 328.564 465.326C330.5 464.223 332.232 466.937 330.472 468.236Z" fill="#371A45"/>
<path d="M596.801 744.56H539.778C549.65 728.326 562.526 717.483 574.355 717.201C586.527 716.899 594.641 727.823 596.801 744.56Z" fill="#FFD243"/>
<path d="M610.675 729.209C601.344 716.752 588.317 712.064 573.922 717.287C560.005 722.382 548.871 733.306 538.931 744.471C537.922 745.671 535.905 744.428 536.557 742.982C545.87 720.811 571.535 698.194 596.91 708.702C601.034 710.539 604.666 713.314 607.492 716.607C610.294 719.923 612.432 723.64 613.744 727.572C614.051 728.498 613.551 729.495 612.628 729.802C611.9 730.046 611.121 729.782 610.675 729.209Z" fill="#371A45"/>
<g opacity="0.6">
<path d="M501.635 533.585C503.243 572.764 567.264 604.88 592.119 706.708C602.663 749.903 637.886 700.584 603.236 619.577C571.124 544.499 500.504 505.969 501.635 533.585Z" fill="white"/>
</g>
<g opacity="0.6">
<path d="M405.619 480.66C414.717 492.155 443.075 496.138 468.258 512.936C495.18 530.893 514.418 515.501 473.83 477.392C430.566 436.77 388.469 458.989 405.619 480.66Z" fill="white"/>
</g>
<path d="M4.43837 749C1.98833 749 0.00242417 747.014 -0.000112112 744.563C-0.0178661 724.881 1.75499 705.102 5.27027 685.78C11.6896 650.5 23.8434 616.586 41.3945 584.974C68.449 536.292 107.553 495.108 154.48 465.874C161.759 461.313 169.347 456.98 177.027 453.004C218.064 431.708 264.135 419.084 310.258 416.496L310.839 416.466C311.069 416.451 311.303 416.438 311.536 416.428C314.547 416.266 317.352 416.154 320.053 416.088C325.574 415.938 331.304 415.931 337.059 416.07C376.546 417.065 415.113 425.117 451.691 440.004C464.053 445.005 476.282 450.855 488.03 457.388C490.488 458.766 493.093 460.232 495.652 461.764C497.141 462.635 498.655 463.563 500.151 464.492C548.642 494.154 588.749 536.119 616.113 585.832C642.764 634.253 656.904 689.048 657.002 744.286C657.005 745.463 656.538 746.595 655.706 747.43C654.875 748.264 653.746 748.734 652.566 748.734L4.43837 749ZM328.803 424.848C325.924 424.848 323.076 424.886 320.276 424.962C317.648 425.026 314.935 425.132 311.957 425.295L311.386 425.325C311.156 425.34 310.922 425.353 310.689 425.363C265.875 427.878 221.044 440.162 181.11 460.887C173.644 464.753 166.266 468.964 159.182 473.404C113.521 501.852 75.477 541.919 49.153 589.287C32.0737 620.046 20.247 653.048 14.0027 687.371C10.8475 704.716 9.13556 722.44 8.90476 740.12L648.085 739.854C646.406 629.486 589.603 529.622 495.492 472.049C494.039 471.146 492.593 470.258 491.132 469.406C488.632 467.909 486.095 466.478 483.704 465.141C472.285 458.791 460.385 453.101 448.35 448.232C412.759 433.748 375.245 425.914 336.838 424.947C334.149 424.881 331.464 424.848 328.803 424.848Z" fill="#371A45"/>
<path d="M477.784 357.929C477.109 372.367 475.438 385.91 472.66 396.834C470.462 405.46 463.532 411.998 454.787 413.632C445.02 415.464 430.033 416.618 410.121 413.447L395.786 236.67C395.786 236.67 411.45 235.27 428.179 237.492C439.775 239.027 451.876 242.297 459.665 248.957C472.622 260.054 479.896 313.298 477.784 357.929Z" fill="white"/>
<path d="M434.104 419.472C426.99 419.472 418.76 418.924 409.482 417.448C407.635 417.153 406.233 415.636 406.081 413.774L391.746 236.998C391.566 234.78 393.207 232.832 395.423 232.634C396.08 232.573 411.729 231.218 428.712 233.476C443.694 235.46 454.993 239.633 462.295 245.877C477.046 258.506 483.919 313.97 481.829 358.12C481.111 373.42 479.298 387.153 476.587 397.831C474.007 407.941 465.744 415.705 455.531 417.613C450.27 418.599 443.077 419.472 434.104 419.472ZM413.895 409.915C432.136 412.462 445.708 411.209 454.039 409.649C461.169 408.317 466.934 402.893 468.734 395.832C471.316 385.679 473.044 372.504 473.736 357.739C473.736 357.739 473.736 357.739 473.736 357.737C475.912 311.766 467.948 261.386 457.027 252.034C450.937 246.826 441.048 243.284 427.644 241.508C416.52 240.029 405.764 240.209 400.153 240.461L413.895 409.915Z" fill="#371A45"/>
<g opacity="0.2">
<path d="M477.784 357.929C477.109 372.367 475.438 385.91 472.661 396.834C470.462 405.46 463.533 411.998 454.788 413.632C445.02 415.464 430.034 416.618 410.121 413.447L395.786 236.67C395.786 236.67 411.45 235.27 428.179 237.492C412.503 257.854 366.609 330.01 477.784 357.929Z" fill="#371A45"/>
</g>
<path d="M449.215 380.988C443.58 380.988 438.527 377.013 437.396 371.297C436.465 366.606 435.869 361.72 435.623 356.78C435.514 354.545 437.234 352.642 439.468 352.533C441.657 352.409 443.602 354.144 443.714 356.379C443.94 360.926 444.488 365.416 445.34 369.721C445.761 371.842 447.828 373.23 449.976 372.812L462.49 370.376C463.997 370.084 465.181 368.965 465.582 367.456C470.517 348.91 468.062 326.255 466.776 317.373C466.698 316.822 466.229 316.421 465.671 316.449C450.217 317.048 447.701 317.621 447.463 317.685C445.299 318.266 443.077 316.987 442.497 314.833C441.913 312.677 443.179 310.454 445.332 309.868C446.113 309.655 448.492 309.006 465.359 308.351C470.081 308.189 474.124 311.55 474.796 316.213C476.153 325.585 478.735 349.545 473.414 369.539C472.227 374.001 468.547 377.452 464.042 378.33L451.528 380.765C450.75 380.917 449.976 380.988 449.215 380.988Z" fill="#371A45"/>
<path d="M464.773 347.619C462.622 356.343 454.196 373.413 421.174 363.754C421.174 363.754 439.6 408.606 411.346 455.3C390.143 490.333 378.4 531.131 373.855 549.329C371.448 558.939 365.257 567.294 356.484 571.914C349.862 575.404 341.692 576.965 333.34 571.827C314.065 559.982 313.882 555.215 313.882 555.03C313.882 555.03 303.367 555.631 294.756 552.363L294.743 552.351C289.351 550.311 284.707 546.746 283.883 540.566C283.835 540.272 283.809 539.975 283.784 539.668C283.269 532.554 285.331 526.557 288.968 521.985C293.967 515.62 301.977 512.02 310.197 512.02C310.197 512.02 319.926 471.062 327.296 448.331L302.063 447.176L302.05 447.163L300.577 447.103C300.577 447.103 272.323 509.158 261.574 542.951C261.574 542.951 260.247 553.604 225.432 550.729C196.883 548.383 176.735 545.199 169.857 537.017C169.832 536.981 169.819 536.956 169.796 536.931C168.322 535.162 167.475 533.158 167.29 530.872C166.271 517.969 175.888 500.963 202.093 507.108C206.098 475.981 211.982 447.831 224.821 430.726L219.981 321.031C219.981 321.031 230.017 273.231 266.687 261.249C303.344 249.269 397.014 252.032 397.014 252.032C397.014 252.032 426.188 256.936 443.694 286.279C451.617 299.55 456.827 312.428 460.167 322.528V322.563C462.698 330.23 464.159 336.288 464.884 339.754C465.437 342.359 465.412 345.039 464.773 347.619Z" fill="white"/>
<path d="M344.579 579.175C339.94 579.175 335.443 577.876 331.218 575.278C320.867 568.917 314.128 563.43 311.318 559.122C307.366 559.089 299.912 558.653 293.315 556.149C293.237 556.118 293.161 556.088 293.085 556.052C283.353 552.295 280.522 545.904 279.876 541.163C279.815 540.772 279.777 540.381 279.746 539.975C279.183 532.232 281.278 525.144 285.8 519.461C290.812 513.08 298.56 508.973 306.968 508.128C309.152 499.109 315.969 471.395 321.856 452.136L303.136 451.279C297.789 463.162 274.915 514.504 265.52 543.905C264.772 547.726 259.507 557.605 225.1 554.763C194.849 552.277 174.536 548.875 166.758 539.62C166.697 539.546 166.638 539.473 166.583 539.397C164.617 536.992 163.496 534.231 163.252 531.195C162.555 522.363 165.959 513.811 172.358 508.313C177.019 504.307 185.242 500.253 198.639 502.308C202.192 476.002 207.772 447.615 220.709 429.478L215.931 321.203C215.916 320.863 215.944 320.523 216.015 320.191C216.443 318.146 226.976 269.953 265.426 257.392C302.332 245.331 393.278 247.866 397.13 247.978C397.315 247.983 397.501 248 397.683 248.031C398.951 248.244 428.915 253.597 447.174 284.199C453.991 295.62 459.66 308.087 464.014 321.252C464.047 321.351 464.075 321.452 464.101 321.554C466.776 329.697 468.222 335.923 468.851 338.924C469.538 342.169 469.493 345.424 468.709 348.588C467.329 354.192 463.951 361.869 455.701 366.621C448.416 370.815 438.883 371.753 427.294 369.44C431.413 384.355 437.376 420.116 414.816 457.398C393.574 492.495 381.844 534.066 377.789 550.311C375.044 561.266 367.968 570.447 358.376 575.501C353.722 577.949 349.083 579.175 344.579 579.175ZM317.874 554.335C318.224 555.053 320.801 559.366 335.463 568.375C341.38 572.013 347.637 571.997 354.599 568.329C362.155 564.348 367.742 557.065 369.926 548.342C375.075 527.727 386.853 487.946 407.882 453.199C434.68 408.908 417.603 365.718 417.426 365.287C416.84 363.846 417.126 362.194 418.169 361.04C419.211 359.885 420.819 359.429 422.31 359.862C435.02 363.582 444.893 363.49 451.655 359.596C457.428 356.273 459.837 350.719 460.839 346.647C460.839 346.647 460.839 346.645 460.839 346.642C461.326 344.676 461.354 342.641 460.918 340.591C460.317 337.712 458.922 331.724 456.317 323.829C456.286 323.733 456.259 323.636 456.233 323.54C452.076 311.033 446.687 299.192 440.214 288.352C424.679 262.312 399.324 256.614 396.58 256.068C390.627 255.913 302.474 253.808 267.942 265.095C235.841 275.583 225.201 316.54 224.047 321.394L228.863 430.541C228.904 431.48 228.62 432.401 228.057 433.152C214.904 450.677 209.58 480.632 206.108 507.621C205.961 508.757 205.34 509.78 204.399 510.432C203.455 511.086 202.283 511.309 201.165 511.046C191.116 508.689 182.977 509.868 177.636 514.458C172.403 518.953 170.945 525.717 171.328 530.548C171.442 531.971 171.944 533.176 172.908 534.33C172.956 534.386 173.002 534.444 173.048 534.505C179.469 541.926 202.172 544.745 225.767 546.686C252.93 548.931 257.305 542.593 257.627 542.04C257.653 541.931 257.681 541.825 257.716 541.718C268.417 508.085 296.61 446.042 296.894 445.421C297.579 443.919 299.131 442.993 300.749 443.051L302.223 443.112C302.332 443.117 302.438 443.125 302.547 443.137L327.487 444.279C328.75 444.337 329.911 444.982 330.632 446.019C331.352 447.057 331.545 448.374 331.154 449.576C323.918 471.892 314.24 512.545 314.141 512.951C313.707 514.778 312.076 516.066 310.199 516.066C303.042 516.066 296.298 519.212 292.156 524.484C288.907 528.566 287.416 533.709 287.827 539.369C287.84 539.536 287.85 539.714 287.88 539.889C287.888 539.935 287.895 539.98 287.9 540.026C288.088 541.431 288.659 545.711 296.176 548.555C296.25 548.583 296.321 548.611 296.389 548.644C304.026 551.473 313.56 550.988 313.656 550.978C314.782 550.927 315.858 551.316 316.667 552.082C317.304 552.691 317.725 553.482 317.874 554.335ZM317.935 555.017C317.935 555.02 317.935 555.025 317.935 555.03C317.935 555.027 317.935 555.022 317.935 555.017ZM317.935 555.009V555.012C317.935 555.012 317.935 555.012 317.935 555.009ZM257.561 542.406C257.561 542.421 257.559 542.436 257.556 542.451C257.556 542.434 257.559 542.418 257.561 542.406Z" fill="#371A45"/>
<path d="M387.186 402.461L322.815 435.8C319.929 437.3 316.672 437.939 313.431 437.645L208.728 428.245L200.485 427.507C194.428 426.966 189.171 423.108 186.837 417.491L153.361 336.979C152.281 334.398 152.648 331.448 154.307 329.213L159.651 321.975C161.175 319.909 163.595 318.72 166.149 318.755L278.171 320.414C283.33 320.488 287.9 323.768 289.633 328.634L309.791 385.357L382.146 390.334L385.646 390.581L387.186 402.461Z" fill="#B1B1BA"/>
<g opacity="0.61">
<path d="M165.619 330.857C163.96 333.094 163.605 336.042 164.673 338.623L198.149 419.135C199.881 423.313 203.247 426.52 207.351 428.118L200.482 427.504C194.426 426.964 189.168 423.105 186.835 417.488L153.358 336.976C152.278 334.396 152.646 331.445 154.304 329.21L159.648 321.972C161.173 319.907 163.592 318.717 166.146 318.753L278.169 320.412C280.256 320.437 282.247 320.99 283.992 321.972L177.461 320.399C174.907 320.361 172.484 321.566 170.963 323.619L165.619 330.857Z" fill="white"/>
</g>
<path d="M314.968 441.767C314.336 441.767 313.704 441.739 313.073 441.684L200.127 431.543C192.544 430.863 186.016 426.071 183.091 419.038L149.615 338.534C148.007 334.665 148.555 330.169 151.043 326.8L156.387 319.567C158.644 316.513 162.238 314.704 166.03 314.704C166.088 314.704 166.146 314.704 166.205 314.704L278.224 316.36C285.047 316.462 291.167 320.851 293.452 327.282L312.718 381.501L385.928 386.542C387.853 386.674 389.417 388.148 389.666 390.063L391.2 401.941C391.419 403.631 390.559 405.275 389.045 406.059L324.671 439.405C321.658 440.963 318.338 441.767 314.968 441.767ZM166.03 322.804C164.8 322.804 163.633 323.39 162.902 324.382L157.559 331.615C156.752 332.709 156.574 334.168 157.094 335.421L190.571 415.928C192.336 420.172 196.275 423.062 200.85 423.473L313.796 433.613C316.274 433.834 318.744 433.35 320.948 432.205L382.805 400.163L382.06 394.391L309.515 389.396C307.907 389.284 306.517 388.231 305.976 386.712L285.821 329.992C284.664 326.734 281.562 324.512 278.105 324.458L166.088 322.802C166.068 322.804 166.05 322.804 166.03 322.804Z" fill="#371A45"/>
<path d="M326.038 438.183C324.342 438.183 322.762 437.11 322.196 435.41L305.949 386.636C305.241 384.512 306.387 382.219 308.51 381.511C310.633 380.798 312.926 381.952 313.634 384.073L329.881 432.847C330.589 434.971 329.442 437.264 327.319 437.972C326.896 438.117 326.462 438.183 326.038 438.183Z" fill="#371A45"/>
<path d="M321.707 424.188C320.573 424.188 319.485 423.559 318.95 422.473C318.199 420.951 318.825 419.109 320.345 418.358L382.478 387.696C384.003 386.942 385.841 387.572 386.592 389.091C387.343 390.613 386.716 392.455 385.197 393.206L323.063 423.869C322.625 424.087 322.163 424.188 321.707 424.188Z" fill="#371A45"/>
<path d="M300.577 439.532C300.189 439.532 299.798 439.512 299.407 439.472C297.721 439.296 296.496 437.787 296.668 436.1C296.843 434.41 298.357 433.185 300.042 433.36C301.776 433.532 303.402 432.86 304.495 431.498C305.588 430.135 305.895 428.403 305.34 426.746L277.895 344.696C276.67 341.028 273.246 338.564 269.38 338.564L162.431 336.682C162.408 336.682 162.383 336.682 162.362 336.682C161.125 336.682 160.003 337.258 159.281 338.267C158.543 339.295 158.365 340.569 158.791 341.761L159.557 343.897C160.13 345.495 159.298 347.254 157.701 347.824C156.108 348.398 154.345 347.566 153.774 345.97L153.008 343.834C151.908 340.759 152.387 337.341 154.289 334.688C156.191 332.034 159.26 330.461 162.54 330.542L269.436 332.422C275.894 332.422 281.656 336.57 283.721 342.748L311.166 424.797C312.378 428.42 311.675 432.36 309.286 435.341C307.146 438.015 303.952 439.532 300.577 439.532Z" fill="#371A45"/>
<path d="M288.796 325.534L277.854 334.87L283.903 321.817C286.351 317.355 292.435 321.977 288.796 325.534Z" fill="#371A45"/>
<path d="M249.745 378.806C249.745 390.959 240.776 400.815 229.708 400.815C225.554 400.815 221.691 399.422 218.493 397.042C216.857 395.825 217.382 393.321 219.355 392.811C226.708 390.908 232.092 384.758 232.092 377.457C232.092 371.03 227.912 365.49 221.889 362.958C219.992 362.161 219.817 359.515 221.671 358.624C224.128 357.442 226.847 356.788 229.711 356.788C240.776 356.785 249.745 366.641 249.745 378.806Z" fill="#371A45"/>
<g opacity="0.61">
<path d="M252.202 382.493C252.202 394.645 243.234 404.501 232.166 404.501C228.014 404.501 224.143 403.114 220.95 400.729C220.052 400.064 219.809 399.009 220.09 398.11C222.941 399.831 226.221 400.815 229.708 400.815C240.776 400.815 249.744 390.961 249.744 378.806C249.744 374.765 248.75 370.967 247.005 367.709C250.249 371.619 252.202 376.802 252.202 382.493Z" fill="white"/>
</g>
<g opacity="0.2">
<path d="M387.185 402.155L322.815 435.493C319.928 436.993 316.672 437.632 313.43 437.338L208.728 427.938L208.654 427.816C213.567 426.317 288.91 417.323 277.854 338.678L288.91 333.308L311.488 390.152C311.488 390.152 319.436 419.52 350.331 405.475C364.164 399.196 374.704 393.924 382.148 390.03L385.648 390.276L387.185 402.155Z" fill="#371A45"/>
</g>
<path d="M310.572 507.991C324.699 511.101 337.941 517.507 349.408 526.207C346.237 524.675 343.059 523.218 339.777 522.044C330.221 518.543 319.972 516.297 309.829 516.059C303.927 515.843 304.713 507.131 310.572 507.991Z" fill="#371A45"/>
<path d="M311.962 551.468C317.94 549.885 323.781 550.174 329.805 550.169C326.003 552.046 322.239 554.008 318.731 556.306C317.626 557.044 316.497 557.843 315.812 558.6C314.227 560.345 311.526 560.472 309.783 558.886C307.118 556.484 308.515 552.117 311.962 551.468Z" fill="#371A45"/>
<path d="M203.227 503.219C211.284 507.139 219.527 510.769 226.872 515.917C224.785 515.163 222.647 514.676 220.494 514.209C214.051 512.87 207.467 511.87 200.969 511C198.725 510.708 197.142 508.651 197.434 506.406C197.736 503.699 200.782 502.037 203.227 503.219Z" fill="#371A45"/>
<path d="M279.485 496.417C277.585 496.417 275.891 495.075 275.516 493.14C272.952 479.988 265.229 469.241 253.77 462.881C241.88 456.279 227.39 455.166 215.01 459.9C212.92 460.699 210.579 459.651 209.781 457.563C208.982 455.473 210.029 453.131 212.116 452.332C226.7 446.753 243.741 448.049 257.698 455.795C271.285 463.337 280.436 476.048 283.464 491.589C283.893 493.786 282.46 495.913 280.264 496.341C280.002 496.392 279.741 496.417 279.485 496.417Z" fill="#371A45"/>
<path d="M300.582 451.157C299.702 451.157 298.829 450.87 298.109 450.317C295.885 449.092 281.458 443.104 268.46 437.893C266.383 437.061 265.376 434.702 266.208 432.624C267.04 430.546 269.398 429.536 271.475 430.371C302.258 442.716 302.946 443.579 303.742 444.573C305.139 446.321 304.858 448.871 303.11 450.269C302.362 450.865 301.47 451.157 300.582 451.157ZM297.417 449.635C297.417 449.637 297.419 449.637 297.419 449.64C297.419 449.64 297.419 449.637 297.417 449.635Z" fill="#371A45"/>
<path d="M388.827 499.49C387.472 499.49 386.151 498.812 385.382 497.577C377.596 485.046 356.083 457.398 324.527 471.293C322.477 472.194 320.088 471.265 319.188 469.218C318.288 467.171 319.216 464.778 321.263 463.878C347.186 452.464 373.726 463.467 392.263 493.299C393.443 495.2 392.862 497.699 390.96 498.878C390.295 499.292 389.554 499.49 388.827 499.49Z" fill="#371A45"/>
<path d="M375.41 368.983C373.898 368.983 372.323 368.803 370.695 368.397C362.404 366.324 354.485 362.676 348.974 358.391C344.066 354.575 341.325 348.69 341.396 342.469C338.53 344.922 335.735 347.223 334.378 348.078C331.699 349.773 328.05 349.588 325.082 347.611C323.104 346.292 318.668 342.223 320.235 332.937C322.341 320.483 346.405 307.202 351.206 304.667C357.1 301.557 379.744 303.269 389.562 304.188L411.212 302.909C411.476 302.891 411.739 302.904 412.003 302.94C422.985 304.449 431.799 311.614 436.184 322.596C441.87 336.842 439.07 354.149 429.052 366.692C427.657 368.44 425.108 368.727 423.358 367.326C423.32 367.296 423.284 367.266 423.249 367.235C422.376 367.755 421.309 367.948 420.241 367.694L392.461 361.078C389.552 363.975 383.384 368.983 375.41 368.983ZM347.107 328.005C347.784 328.005 348.464 328.175 349.083 328.52C350.595 329.365 351.401 331.08 351.089 332.785L349.702 340.383C348.883 344.871 350.506 349.319 353.943 351.99C358.531 355.557 365.526 358.751 372.655 360.532C380.974 362.61 387.827 354.152 387.893 354.065C388.872 352.838 390.48 352.272 392.012 352.635L422.11 359.802C422.661 359.934 423.158 360.172 423.586 360.489C430.987 350.42 433.041 336.58 428.656 325.593C425.384 317.403 419.221 312.24 411.275 311.012L389.729 312.286C389.521 312.299 389.316 312.294 389.108 312.276C374.968 310.941 357.881 310.442 354.975 311.832C342.76 318.281 329.224 328.345 328.222 334.279C327.743 337.118 328.095 339.399 329.186 340.533C329.617 340.982 330.031 341.096 330.211 341.114C332.372 339.655 339.985 332.998 344.404 329.035C345.162 328.358 346.131 328.005 347.107 328.005Z" fill="#371A45"/>
<path d="M388.897 358.746L381.842 349.07L383.886 348.682L379.485 355.709L381.58 347.685C381.867 346.708 382.963 346.632 383.625 347.297L393.255 354.413C396.91 357.432 391.895 362.427 388.897 358.746Z" fill="#371A45"/>
<path d="M383.828 309.566L379.483 291.043L390.541 306.524L383.828 309.566Z" fill="#371A45"/>
<path d="M257.275 318.753L260.96 301.488L264.645 318.753H257.275Z" fill="#371A45"/>
<path d="M289.519 329.195C287.35 329.195 285.554 327.477 285.473 325.291C285.392 323.053 287.139 321.176 289.374 321.094L329.708 319.628C331.983 319.537 333.822 321.292 333.903 323.53C333.985 325.767 332.237 327.645 330.003 327.726L289.668 329.192C289.617 329.195 289.569 329.195 289.519 329.195Z" fill="#371A45"/>
<path d="M305.553 377.122C303.585 377.122 301.951 375.567 301.873 373.583C301.791 371.548 303.374 369.833 305.411 369.752L345.608 368.151C347.898 368.06 349.692 366.192 349.692 363.899V356.58C349.692 354.545 351.34 352.893 353.377 352.893C355.413 352.893 357.062 354.545 357.062 356.58V363.899C357.062 370.165 352.159 375.267 345.9 375.518L305.702 377.119C305.652 377.122 305.603 377.122 305.553 377.122Z" fill="#371A45"/>
<path d="M303.237 366.208C301.274 366.208 299.641 364.657 299.557 362.676C299.471 360.641 301.051 358.924 303.085 358.838L330.025 357.701C330.905 357.663 331.717 357.282 332.308 356.628C332.899 355.973 333.198 355.128 333.148 354.248L332.44 341.822C332.326 339.79 333.878 338.047 335.91 337.933C337.916 337.803 339.684 339.371 339.798 341.403L340.505 353.829C340.668 356.696 339.696 359.446 337.769 361.575C335.841 363.703 333.201 364.942 330.332 365.063L303.392 366.2C303.344 366.205 303.29 366.208 303.237 366.208Z" fill="#371A45"/>
<path d="M338.692 356.673L350.024 367.539L334.984 363.046C332.978 362.448 331.836 360.334 332.437 358.328C333.163 355.641 336.749 354.722 338.692 356.673Z" fill="#371A45"/>
<path d="M450.245 251.753C445.677 256.583 439.286 259.488 432.638 259.709C437.196 254.866 443.602 251.991 450.245 251.753Z" fill="#371A45"/>
<g opacity="0.3">
<path d="M288.968 521.988C287.517 528.008 285.823 534.386 283.883 540.566C283.835 540.272 283.809 539.975 283.784 539.668C283.269 532.554 285.334 526.559 288.968 521.988Z" fill="#000070"/>
</g>
<g opacity="0.2">
<path d="M302.053 447.166L300.579 447.105C300.579 447.105 272.325 509.161 261.576 542.954C261.576 542.954 260.25 553.607 225.434 550.732C196.886 548.385 176.738 545.202 169.859 537.02C169.811 536.946 169.786 536.908 169.786 536.908C169.786 536.908 179.576 520.983 210.288 530.949C240.997 540.899 246.526 507.106 246.526 507.106C246.526 507.106 278.465 452.755 260.96 432.934L302.053 447.166Z" fill="#371A45"/>
</g>
<g opacity="0.2">
<path d="M464.248 347.926C462.097 356.651 453.672 373.72 420.649 364.061C420.649 364.061 439.075 408.913 410.821 455.607C389.618 490.641 377.875 531.438 373.33 549.636C370.923 559.247 364.732 567.601 355.959 572.221C349.337 575.709 341.167 577.272 332.815 572.135C313.54 560.289 313.357 555.522 313.357 555.337C313.357 555.337 302.842 555.938 294.231 552.671L294.218 552.658C294.218 552.658 337.226 558.016 339.978 540.493C342.73 522.957 339.978 521.557 339.978 521.557C339.978 521.557 377.913 455.741 383.305 440.923C388.71 426.117 380.921 421.421 380.921 421.421L329.325 436.77L388.291 401.122L386.658 377.246C386.658 377.246 362.064 379.986 354.412 365.228L349.499 370.696L335.912 357.092L336.318 338.255L349.499 331.078C349.499 331.078 360.2 353.578 378.958 341.916L386.661 337.43C386.661 337.43 462.863 357.668 459.642 322.868C462.173 330.535 463.634 336.593 464.359 340.059C464.91 342.667 464.887 345.346 464.248 347.926Z" fill="#371A45"/>
</g>
<g opacity="0.2">
<path d="M326.038 289.509C326.038 289.509 399.162 307.019 424.038 262.167L402.39 253.427L326.038 289.509Z" fill="#371A45"/>
</g>
<path d="M208.964 225.421C220.156 243.165 235.902 258.192 255.304 268.632C259.261 270.758 263.357 272.698 267.598 274.426C269.66 275.273 271.77 276.065 273.91 276.821C280.373 279.069 286.896 280.766 293.44 281.933C299.078 282.953 304.731 283.572 310.349 283.823C317.136 284.13 323.888 283.884 330.54 283.125C332.968 282.841 335.377 282.494 337.774 282.085C381.626 274.51 420.32 244.428 436.417 200.051C460.147 134.682 425.851 63.075 359.834 40.0998C347.117 35.6829 334.139 33.3717 321.318 33.0292C319.819 32.9759 318.315 32.9632 316.811 32.9835C312.789 33.0089 308.789 33.2245 304.825 33.6279C295.651 34.559 286.65 36.4821 277.984 39.3058C269.315 42.1193 260.963 45.8513 253.1 50.4103C250.599 51.8589 248.147 53.3887 245.742 55.0099C242.141 57.4403 238.659 60.0433 235.306 62.8467C218.576 76.7572 205.225 95.0896 197.325 116.867C183.677 154.473 189.229 194.132 208.964 225.421Z" fill="white"/>
<path d="M316.025 284.31C314.12 284.31 312.223 284.267 310.334 284.181C304.614 283.922 298.908 283.285 293.376 282.283C286.769 281.104 280.18 279.378 273.791 277.156C271.447 276.326 269.375 275.54 267.46 274.753C263.291 273.054 259.144 271.098 255.134 268.944C236.178 258.742 220.108 243.759 208.662 225.609C188.012 192.871 183.758 153.192 196.99 116.746C204.637 95.6656 217.808 76.9323 235.08 62.5728C238.344 59.843 241.864 57.1994 245.544 54.7157C247.901 53.1275 250.381 51.5749 252.923 50.1034C260.805 45.5317 269.2 41.7845 277.874 38.9659C286.622 36.1143 295.679 34.1989 304.789 33.2729C308.754 32.872 312.799 32.6538 316.811 32.6285C318.417 32.6056 319.895 32.6234 321.334 32.6741C334.413 33.0217 347.409 35.409 359.953 39.7625C392.101 50.9508 417.778 73.8879 432.258 104.347C446.621 134.566 448.218 168.597 436.754 200.175C421.194 243.064 383.292 274.586 337.835 282.441C335.44 282.849 332.998 283.199 330.583 283.483C325.744 284.034 320.864 284.31 316.025 284.31ZM318.209 33.3363C317.755 33.3363 317.293 33.3388 316.822 33.3464C312.829 33.3718 308.807 33.5875 304.865 33.9883C295.806 34.9092 286.8 36.8145 278.098 39.6509C269.472 42.4518 261.122 46.1787 253.283 50.725C250.757 52.1888 248.286 53.7313 245.945 55.3119C242.285 57.783 238.783 60.4113 235.536 63.1259C218.363 77.4042 205.266 96.0335 197.662 116.994C184.506 153.233 188.734 192.684 209.266 225.233C220.646 243.279 236.624 258.177 255.471 268.32C259.459 270.463 263.582 272.407 267.729 274.099C269.634 274.88 271.694 275.662 274.024 276.489C280.375 278.698 286.926 280.414 293.498 281.586C298.999 282.58 304.673 283.214 310.362 283.471C317.014 283.772 323.789 283.539 330.497 282.775C332.901 282.494 335.329 282.144 337.71 281.738C382.914 273.926 420.609 242.582 436.08 199.934C447.478 168.539 445.89 134.7 431.608 104.657C417.212 74.3725 391.68 51.5673 359.715 40.4425C347.242 36.1118 334.319 33.7397 321.308 33.3921C320.309 33.354 319.282 33.3363 318.209 33.3363Z" fill="#371A45"/>
<g opacity="0.2">
<path d="M436.42 200.051C420.324 244.434 381.626 274.518 337.774 282.085C335.377 282.496 332.967 282.844 330.545 283.126C323.89 283.887 317.138 284.128 310.354 283.826C304.734 283.57 299.078 282.953 293.445 281.936C286.898 280.769 280.378 279.074 273.91 276.826C271.775 276.063 269.664 275.276 267.6 274.431C263.357 272.701 259.266 270.755 255.307 268.629C235.904 258.187 220.156 243.168 208.964 225.416C202.813 215.669 198.037 205.102 194.793 194.041C205.867 210.732 221.052 224.858 239.559 234.821C243.515 236.957 247.609 238.89 251.852 240.623C253.909 241.47 256.019 242.257 258.162 243.018C264.63 245.266 271.151 246.963 277.689 248.133C283.33 249.147 288.978 249.766 294.599 250.023C301.383 250.325 308.142 250.078 314.79 249.322C317.22 249.036 319.629 248.691 322.026 248.277C365.878 240.707 404.572 210.628 420.672 166.243C430.071 140.353 430.358 113.486 423.188 89.0542C444.216 120.709 450.43 161.468 436.42 200.051Z" fill="#371A45"/>
</g>
<path d="M316.023 286.708C314.082 286.708 312.15 286.665 310.225 286.576C304.399 286.314 298.586 285.665 292.948 284.645C286.224 283.445 279.51 281.687 273.005 279.424C270.611 278.577 268.503 277.777 266.552 276.976C262.309 275.245 258.084 273.254 254 271.059C234.682 260.663 218.302 245.39 206.635 226.893C185.589 193.523 181.252 153.081 194.74 115.934C202.532 94.4553 215.951 75.3668 233.548 60.7359C236.87 57.9578 240.457 55.2661 244.205 52.7341C246.607 51.1155 249.136 49.535 251.723 48.0356C259.75 43.3802 268.303 39.562 277.136 36.6926C286.044 33.7877 295.268 31.8368 304.549 30.893C308.591 30.4845 312.71 30.2638 316.796 30.2359C318.424 30.2156 319.944 30.2283 321.422 30.2841C334.725 30.6393 347.962 33.0672 360.74 37.5044C393.501 48.9058 419.665 72.2793 434.421 103.322C449.061 134.124 450.691 168.81 439.007 200.997C423.155 244.692 384.545 276.806 338.243 284.805C335.803 285.221 333.32 285.579 330.862 285.865C325.924 286.426 320.956 286.708 316.023 286.708ZM318.204 35.7311C317.762 35.7311 317.314 35.7336 316.852 35.7412C312.918 35.7666 308.974 35.9797 305.104 36.3704C296.214 37.2736 287.375 39.1459 278.838 41.9265C270.37 44.6766 262.175 48.335 254.482 52.795C252.002 54.2335 249.58 55.7456 247.282 57.2957C243.69 59.7211 240.254 62.2987 237.071 64.96C220.217 78.9719 207.371 97.246 199.912 117.809C187.01 153.347 191.157 192.034 211.29 223.952C222.449 241.648 238.121 256.261 256.605 266.209C260.516 268.312 264.564 270.22 268.635 271.879C270.509 272.648 272.533 273.416 274.826 274.228C281.045 276.392 287.474 278.074 293.921 279.226C299.324 280.203 304.888 280.827 310.471 281.078C316.999 281.372 323.647 281.144 330.228 280.396C332.582 280.119 334.969 279.777 337.31 279.376C381.664 271.711 418.651 240.958 433.83 199.117C445.008 168.328 443.45 135.146 429.448 105.687C415.331 75.9859 390.287 53.6196 358.931 42.7053C346.691 38.4558 334.01 36.1268 321.247 35.7869C320.256 35.7488 319.254 35.7311 318.204 35.7311Z" fill="#371A45"/>
<path d="M316.023 287.504C314.07 287.504 312.124 287.461 310.189 287.372C304.328 287.109 298.479 286.454 292.808 285.429C286.044 284.221 279.29 282.453 272.744 280.175C270.332 279.323 268.214 278.518 266.248 277.712C261.98 275.971 257.731 273.967 253.623 271.76C234.184 261.3 217.701 245.93 205.963 227.316C184.783 193.736 180.42 153.04 193.992 115.657C201.832 94.0469 215.332 74.8417 233.038 60.1195C236.378 57.3262 239.988 54.6167 243.759 52.0695C246.176 50.4408 248.72 48.85 251.322 47.3405C259.398 42.6572 268.001 38.8162 276.89 35.929C285.851 33.0089 295.131 31.0453 304.47 30.0939C308.538 29.6829 312.682 29.4596 316.794 29.4343C318.43 29.4114 319.961 29.4267 321.453 29.4825C334.829 29.8377 348.147 32.2833 361.003 36.746C393.967 48.2183 420.297 71.739 435.144 102.975C449.877 133.969 451.516 168.876 439.757 201.264C423.807 245.228 384.964 277.536 338.38 285.586C335.922 286.005 333.427 286.365 330.956 286.654C325.985 287.223 320.986 287.504 316.023 287.504ZM318.204 36.5303C317.768 36.5303 317.321 36.5328 316.865 36.5405C312.951 36.5658 309.03 36.7764 305.188 37.1646C296.354 38.0627 287.573 39.9198 279.087 42.6876C270.671 45.42 262.53 49.0555 254.886 53.4902C252.42 54.9186 250.013 56.423 247.733 57.9605C244.165 60.3681 240.751 62.933 237.588 65.5766C220.841 79.4997 208.079 97.6546 200.668 118.085C187.852 153.39 191.971 191.821 211.972 223.529C223.06 241.107 238.626 255.624 256.991 265.506C260.876 267.594 264.899 269.492 268.942 271.138C270.806 271.904 272.817 272.665 275.097 273.475C281.273 275.624 287.662 277.295 294.066 278.44C299.435 279.411 304.964 280.03 310.511 280.279C316.997 280.571 323.604 280.345 330.142 279.602C332.481 279.328 334.852 278.988 337.18 278.589C381.251 270.976 418.001 240.417 433.085 198.843C444.188 168.255 442.644 135.294 428.732 106.029C414.707 76.5213 389.826 54.3021 358.673 43.4589C346.511 39.2373 333.911 36.9235 321.23 36.5861C320.238 36.5481 319.244 36.5303 318.204 36.5303Z" fill="#371A45"/>
<path d="M229.528 250.2C306.874 296.617 405.764 253.511 405.83 164.705C405.875 104.289 346.006 58.0163 287.246 62.0983C244.479 65.0692 203.909 86.4384 189.964 153.218C189.964 153.218 188.407 183.69 197.916 203.291C207.422 222.892 220.029 240.349 220.029 240.349L229.528 250.2Z" fill="#371A45"/>
<path d="M405.824 164.708C405.761 253.508 306.869 296.615 229.528 250.205L227.603 248.206C310.209 257.294 388.791 203.687 390.548 113.889C400.151 128.766 405.835 146.063 405.824 164.708Z" fill="#220F2D"/>
<path d="M296.268 285.515C295.301 285.515 294.337 285.505 293.369 285.485L292.818 285.432C286.046 284.221 279.292 282.453 272.746 280.177C270.334 279.325 268.216 278.521 266.251 277.714C261.982 275.974 257.734 273.969 253.625 271.762C234.184 261.299 217.701 245.93 205.963 227.316C184.783 193.736 180.42 153.04 193.992 115.657C201.832 94.0468 215.332 74.8416 233.038 60.1193L233.32 59.8859L233.642 59.7134C248.489 51.8132 265.992 47.1171 285.661 45.7522C321.072 43.2863 358.272 56.8314 385.187 81.9681C409.434 104.611 422.772 133.969 422.749 164.632C422.721 198.001 410.73 227.364 388.073 249.551C364.64 272.495 331.319 285.515 296.268 285.515ZM293.79 278.389C327.92 279.003 360.44 266.665 383.102 244.474C404.364 223.653 415.617 196.042 415.645 164.627C415.668 135.956 403.129 108.444 380.34 87.1588C354.838 63.3414 319.616 50.5117 286.153 52.8381C267.628 54.1244 251.193 58.4906 237.297 65.8149C220.697 79.7 208.033 97.7661 200.665 118.082C187.849 153.388 191.968 191.818 211.969 223.526C223.058 241.105 238.623 255.622 256.988 265.503C260.874 267.591 264.896 269.489 268.939 271.135C270.803 271.902 272.815 272.663 275.095 273.472C281.182 275.59 287.477 277.247 293.79 278.389Z" fill="#371A45"/>
<path d="M296.673 270.387C273.58 270.387 250.044 263.991 228.876 251.289L228.615 251.08L219 241.095C218.873 240.92 206.217 223.323 196.772 203.846C187.23 184.177 188.63 154.413 188.694 153.154L188.719 152.959C200.708 95.5336 233.827 64.5364 287.155 60.8324C318.153 58.6785 350.711 70.5365 374.281 92.5476C395.461 112.329 407.116 137.955 407.095 164.705C407.067 203.547 388.04 236.581 354.891 255.34C337.135 265.394 317.075 270.387 296.673 270.387ZM230.324 249.201C269.383 272.574 316.621 274.086 353.646 253.135C385.976 234.841 404.534 202.608 404.562 164.708C404.582 138.67 393.212 113.704 372.551 94.4072C349.489 72.868 317.633 61.2611 287.332 63.3694C235.308 66.9846 202.973 97.2715 191.225 153.383C191.144 155.273 190.063 184.202 199.055 202.743C208.096 221.385 220.116 238.299 221.006 239.54L230.324 249.201Z" fill="#371A45"/>
<path d="M461.734 155.544C464.732 180.092 452.558 202.52 434.535 205.638C416.515 208.756 399.476 191.38 396.479 166.831C396.456 166.679 396.44 166.514 396.428 166.36C393.638 141.997 405.782 119.833 423.678 116.738C437.599 114.33 450.932 124.151 457.664 140.058C459.645 144.742 461.052 149.96 461.734 155.544Z" fill="white"/>
<g opacity="0.2">
<path d="M461.734 155.544C464.732 180.092 452.558 202.52 434.535 205.638C416.515 208.756 399.476 191.38 396.478 166.831C396.456 166.679 396.44 166.514 396.428 166.359C398.715 168.536 402.104 170.482 406.18 168.924C413.317 166.192 424.522 148.136 424.522 148.136C424.522 148.136 438.872 144.541 457.664 140.061C459.644 144.742 461.052 149.96 461.734 155.544Z" fill="#371A45"/>
</g>
<path d="M430.292 209.552C423.921 209.552 417.669 207.38 411.973 203.146C401.744 195.543 394.812 182.462 392.955 167.258C389.737 140.898 403.25 116.664 423.076 113.237C431.094 111.849 439.108 113.919 446.245 119.224C456.474 126.828 463.406 139.909 465.262 155.113C468.481 181.472 454.968 205.706 435.141 209.133C433.523 209.413 431.903 209.552 430.292 209.552ZM427.88 119.927C426.683 119.927 425.486 120.031 424.286 120.237C408.13 123.03 397.237 143.737 400.004 166.397C401.602 179.483 407.658 191.09 416.208 197.445C421.747 201.56 427.872 203.182 433.932 202.134C450.088 199.341 460.981 178.633 458.214 155.973C456.616 142.887 450.559 131.28 442.01 124.925C437.566 121.624 432.742 119.927 427.88 119.927Z" fill="#371A45"/>
<path d="M442.513 199.113C456.25 198.233 466.339 181.18 465.049 161.024C463.759 140.869 451.578 125.242 437.841 126.122C424.105 127.002 414.016 144.054 415.306 164.21C416.596 184.366 428.777 199.992 442.513 199.113Z" fill="white"/>
<g opacity="0.2">
<path d="M444.429 198.884C458.026 196.423 467.124 178.2 464.76 158.17C464.509 155.996 464.118 153.89 463.629 151.868C461.658 166.101 453.768 177.367 443.197 179.27C431.258 181.417 419.815 170.903 415.493 154.938C415.057 158.822 415.052 162.914 415.541 167.077C417.905 187.11 430.84 201.342 444.429 198.884Z" fill="#371A45"/>
</g>
<path d="M441.343 202.715C436.618 202.715 431.956 201.091 427.682 197.928C419.399 191.796 413.545 180.42 412.018 167.499C409.398 145.307 419.597 125.706 435.24 122.875C441.213 121.797 447.229 123.332 452.624 127.328C460.908 133.459 466.761 144.835 468.288 157.756C470.908 179.948 460.707 199.549 445.066 202.38C443.823 202.603 442.58 202.715 441.343 202.715ZM438.916 129.649C438.109 129.649 437.302 129.72 436.504 129.867C424.946 131.958 416.961 148.811 419.069 166.666C420.37 177.68 425.169 187.231 431.905 192.219C435.687 195.018 439.796 196.114 443.8 195.391C455.358 193.3 463.342 176.444 461.235 158.591C459.934 147.578 455.135 138.026 448.399 133.038C445.375 130.798 442.137 129.649 438.916 129.649Z" fill="#371A45"/>
<g opacity="0.5">
<path d="M319.52 87.3492C319.52 87.3492 266.804 85.6494 238.965 118.521C238.935 118.557 238.907 118.59 238.877 118.626C233.023 125.549 227.894 142.78 226.368 151.65C224.349 163.381 224.694 169.208 225.287 176.558C227.101 198.912 232.186 209.019 232.186 209.019C218.345 198.316 210.001 185.534 208.304 166.93C208.142 165.096 208.043 163.198 208.005 161.247C207.995 160.798 207.995 160.352 208 159.903C207.99 159.9 207.992 159.89 208.005 159.875C208.208 155.915 208.672 153.256 209.692 147.436C212.755 129.877 220.818 106.628 241.801 94.3539C281.037 71.4092 321.197 84.8553 319.52 87.3492Z" fill="white"/>
</g>
<g opacity="0.5">
<path d="M366.752 170.238C375.553 166.978 379.653 156.137 375.909 146.025C372.165 135.912 361.995 130.357 353.194 133.618C344.393 136.878 340.293 147.719 344.037 157.831C347.781 167.944 357.951 173.499 366.752 170.238Z" fill="white"/>
</g>
<g opacity="0.5">
<path d="M375.463 195.108C378.956 193.43 380.224 188.815 378.296 184.8C376.369 180.785 371.975 178.89 368.482 180.568C364.99 182.245 363.721 186.86 365.649 190.875C367.577 194.89 371.971 196.785 375.463 195.108Z" fill="white"/>
</g>
<path d="M570.835 230.543L579.055 244.662L595.343 245.892C599.982 246.243 602.206 251.763 599.107 255.234L588.224 267.416L592.086 283.291C593.187 287.811 588.627 291.635 584.368 289.757L569.422 283.169L555.523 291.749C551.564 294.192 546.522 291.036 546.989 286.403L548.635 270.149L536.182 259.577C532.633 256.566 534.079 250.791 538.627 249.807L554.59 246.349L560.794 231.234C562.556 226.931 568.491 226.52 570.835 230.543Z" fill="#FFD243"/>
<g opacity="0.2">
<path d="M599.104 255.239L588.221 267.419L592.081 283.29C593.182 287.816 588.622 291.632 584.371 289.765L569.422 283.176L555.516 291.746C551.861 294.014 547.268 291.472 546.971 287.416C547.795 287.334 548.619 287.071 549.411 286.591L563.307 278.021L578.256 284.61C582.517 286.477 587.077 282.661 585.976 278.135L582.116 262.264L592.999 250.083C594.123 248.823 594.546 247.288 594.409 245.821L595.348 245.89C599.987 246.242 602.208 251.766 599.104 255.239Z" fill="#371A45"/>
</g>
<g opacity="0.61">
<path d="M571.91 232.401C570.066 232.664 568.347 233.811 567.522 235.815L561.314 250.928L545.355 254.389C540.808 255.373 539.365 261.15 542.903 264.164L555.366 274.728L553.717 290.988C553.659 291.493 553.682 291.985 553.763 292.454C550.235 293.256 546.593 290.369 546.981 286.404L548.63 270.144L536.177 259.58C532.626 256.566 534.069 250.791 538.616 249.805L554.585 246.344L560.784 231.231C562.559 226.933 568.494 226.522 570.83 230.544L571.91 232.401Z" fill="white"/>
</g>
<path d="M552.571 296.034C550.91 296.034 549.249 295.57 547.767 294.644C544.825 292.802 543.217 289.511 543.567 286.058L545.031 271.603L533.955 262.2C531.31 259.955 530.188 256.467 531.031 253.1C531.873 249.733 534.503 247.184 537.896 246.451L552.094 243.376L557.611 229.932C558.93 226.72 561.897 224.576 565.362 224.338C568.806 224.092 572.06 225.812 573.805 228.813L581.117 241.369L595.602 242.462C599.061 242.724 602.016 244.885 603.314 248.105C604.61 251.324 603.981 254.932 601.668 257.52L591.987 268.355L595.424 282.474C596.246 285.845 595.104 289.326 592.444 291.554C589.783 293.781 586.157 294.299 582.984 292.898L569.688 287.038L557.324 294.672C555.858 295.582 554.215 296.034 552.571 296.034ZM565.988 231.19C565.93 231.19 565.879 231.193 565.833 231.196C565.428 231.223 564.433 231.411 563.969 232.543L557.768 247.658C557.339 248.706 556.421 249.475 555.315 249.713L539.352 253.171C538.157 253.43 537.8 254.376 537.701 254.772C537.602 255.168 537.473 256.17 538.403 256.961L550.859 267.533C551.721 268.266 552.17 269.375 552.056 270.501L550.41 286.756C550.286 287.971 551.075 288.606 551.42 288.821C551.762 289.037 552.678 289.468 553.718 288.829L567.616 280.246C568.58 279.65 569.772 279.569 570.807 280.025L585.756 286.614C586.877 287.111 587.721 286.553 588.031 286.292C588.343 286.031 589.035 285.295 588.749 284.107L584.886 268.231C584.62 267.132 584.909 265.97 585.662 265.128L596.548 252.945C597.362 252.035 597.096 251.058 596.943 250.68C596.791 250.302 596.307 249.414 595.089 249.322L578.801 248.092C577.673 248.008 576.661 247.372 576.09 246.395L567.87 232.276C567.317 231.333 566.457 231.19 565.988 231.19Z" fill="#371A45"/>
<path d="M74.4219 282.212L82.642 296.331L98.93 297.561C103.569 297.911 105.793 303.432 102.694 306.902L91.8107 319.085L95.6734 334.959C96.7742 339.48 92.2139 343.303 87.9555 341.426L73.0092 334.837L59.1104 343.418C55.1513 345.861 50.1092 342.705 50.5759 338.072L52.2219 321.817L39.7688 311.246C36.2205 308.234 37.6662 302.46 42.2138 301.476L58.1771 298.018L64.3808 282.902C66.1435 278.599 72.081 278.188 74.4219 282.212Z" fill="#FFD243"/>
<g opacity="0.2">
<path d="M102.691 306.907L91.8081 319.088L95.6684 334.959C96.7691 339.485 92.2089 343.301 87.9581 341.434L73.0092 334.845L59.1028 343.415C55.4481 345.683 50.8548 343.141 50.5581 339.084C51.3824 339.003 52.2067 338.739 52.998 338.26L66.8943 329.69L81.8431 336.278C86.104 338.146 90.6643 334.33 89.5635 329.804L85.7033 313.932L96.5865 301.752C97.7101 300.491 98.1336 298.956 97.9967 297.49L98.9351 297.558C103.574 297.911 105.796 303.434 102.691 306.907Z" fill="#371A45"/>
</g>
<g opacity="0.61">
<path d="M75.4974 284.069C73.6535 284.333 71.9339 285.48 71.1096 287.484L64.9008 302.597L48.9425 306.058C44.395 307.042 42.9518 312.819 46.49 315.833L58.9532 326.397L57.3046 342.657C57.2463 343.161 57.2691 343.654 57.3503 344.123C53.8223 344.925 50.1802 342.038 50.5683 338.072L52.2169 321.812L39.7637 311.248C36.213 308.234 37.6561 302.46 42.2036 301.473L58.172 298.013L64.3707 282.9C66.1461 278.602 72.081 278.191 74.4169 282.212L75.4974 284.069Z" fill="white"/>
</g>
<path d="M56.1607 347.703C54.4995 347.703 52.8382 347.238 51.3595 346.312C48.4175 344.47 46.8069 341.182 47.1569 337.727L48.6204 323.269L37.5444 313.866C34.8991 311.621 33.7781 308.133 34.6201 304.766C35.4622 301.4 38.0923 298.85 41.4858 298.117L55.6839 295.042L61.2003 281.598C62.5192 278.386 65.4866 276.243 68.9486 276.004C72.4208 275.763 75.6469 277.481 77.3919 280.479L84.704 293.035L99.1887 294.129C102.648 294.39 105.605 296.551 106.901 299.771C108.198 302.99 107.569 306.598 105.255 309.188L95.577 320.024L99.0137 334.142C99.8354 337.517 98.6916 340.995 96.031 343.225C93.3705 345.455 89.7436 345.965 86.5707 344.569L73.2781 338.709L60.9137 346.343C59.4452 347.251 57.8017 347.703 56.1607 347.703ZM69.5751 282.859C69.5168 282.859 69.466 282.862 69.4204 282.864C69.0146 282.892 68.0204 283.08 67.5562 284.211L61.3525 299.327C60.9238 300.372 60.0057 301.141 58.8999 301.382L42.9366 304.84C41.742 305.099 41.3844 306.045 41.2854 306.438C41.1865 306.834 41.0572 307.836 41.988 308.628L54.4437 319.199C55.306 319.932 55.7524 321.041 55.6382 322.168L53.9922 338.422C53.8705 339.637 54.6592 340.272 55.0016 340.487C55.3466 340.703 56.2622 341.134 57.302 340.495L71.2008 331.912C72.1646 331.316 73.3567 331.235 74.3915 331.692L89.3378 338.28C90.4563 338.775 91.3034 338.217 91.6128 337.958C91.9248 337.697 92.6197 336.961 92.3306 335.774L88.4678 319.9C88.2015 318.801 88.4907 317.639 89.2439 316.797L100.127 304.614C100.941 303.703 100.675 302.726 100.523 302.348C100.371 301.97 99.8862 301.082 98.6687 300.991L82.3808 299.761C81.2521 299.677 80.2401 299.04 79.6695 298.063L71.4494 283.945C70.9041 283.001 70.0443 282.859 69.5751 282.859Z" fill="#371A45"/>
<path d="M135.944 6.22833L144.164 20.3468L160.452 21.5773C165.091 21.9274 167.316 27.4479 164.216 30.9185L153.333 43.1013L157.196 58.9754C158.297 63.4963 153.736 67.3196 149.478 65.4422L134.532 58.8536L120.633 67.4338C116.674 69.8769 111.632 66.7209 112.098 62.0883L113.744 45.8336L101.291 35.2644C97.743 32.253 99.1887 26.4788 103.736 25.4944L119.7 22.0365L125.903 6.92093C127.669 2.61816 133.603 2.20716 135.944 6.22833Z" fill="#FFD243"/>
<g opacity="0.2">
<path d="M164.216 30.9237L153.333 43.1039L157.193 58.9755C158.294 63.5015 153.734 67.3172 149.483 65.45L134.534 58.8613L120.628 67.4314C116.973 69.6995 112.38 67.1574 112.083 63.1007C112.907 63.0195 113.732 62.7557 114.523 62.2762L128.419 53.7061L143.368 60.2948C147.629 62.162 152.189 58.3463 151.088 53.8203L147.228 37.9487L158.111 25.7685C159.235 24.5076 159.659 22.9727 159.522 21.5063L160.46 21.5748C165.099 21.93 167.321 27.4531 164.216 30.9237Z" fill="#371A45"/>
</g>
<g opacity="0.61">
<path d="M137.02 8.08545C135.176 8.3493 133.456 9.49603 132.632 11.5003L126.423 26.6133L110.465 30.0737C105.917 31.0581 104.474 36.8349 108.012 39.8489L120.476 50.413L118.827 66.6727C118.769 67.1776 118.792 67.6697 118.873 68.1391C115.345 68.9408 111.703 66.0537 112.091 62.0883L113.739 45.8286L101.286 35.2645C97.7354 32.2505 99.1786 26.4763 103.726 25.4894L119.695 22.0289L125.893 6.91589C127.669 2.61818 133.603 2.20719 135.939 6.22835L137.02 8.08545Z" fill="white"/>
</g>
<path d="M117.683 71.7214C116.022 71.7214 114.358 71.2571 112.879 70.3311C109.937 68.4892 108.329 65.1987 108.679 61.7458L110.143 47.2899L99.0669 37.8878C96.4216 35.6425 95.3005 32.1541 96.1426 28.7875C96.9846 25.4209 99.6147 22.8712 103.008 22.138L117.206 19.0631L122.723 5.61949C124.042 2.40763 127.009 0.263855 130.474 0.0253755C133.923 -0.223252 137.172 1.50192 138.917 4.50067L146.229 17.0563L160.714 18.1498C164.173 18.4111 167.128 20.5726 168.426 23.7921C169.723 27.0116 169.094 30.6192 166.78 33.207L157.099 44.0426L160.536 58.161C161.358 61.5327 160.217 65.0135 157.553 67.2435C154.893 69.4736 151.269 69.9886 148.093 68.5882L134.798 62.7277L122.434 70.359C120.968 71.2673 119.324 71.7214 117.683 71.7214ZM131.1 6.87785C131.042 6.87785 130.991 6.88039 130.945 6.88292C130.54 6.91083 129.545 7.09857 129.081 8.23008L122.88 23.3456C122.451 24.3934 121.533 25.1621 120.427 25.4006L104.464 28.8585C103.27 29.1173 102.912 30.0636 102.813 30.4594C102.714 30.8552 102.585 31.8573 103.516 32.6488L115.971 43.2206C116.834 43.9538 117.282 45.0624 117.168 46.1889L115.522 62.4435C115.398 63.6588 116.187 64.293 116.532 64.5087C116.877 64.7243 117.79 65.1556 118.832 64.5163L132.731 55.9361C133.692 55.3399 134.884 55.2587 135.922 55.7154L150.87 62.304C151.986 62.7987 152.833 62.2431 153.145 61.9818C153.457 61.7205 154.15 60.9847 153.863 59.7974L149.995 43.9157C149.729 42.8172 150.018 41.6552 150.771 40.8129L161.657 28.6302C162.471 27.7194 162.205 26.7427 162.053 26.3647C161.901 25.9866 161.416 25.0987 160.199 25.0073L143.911 23.7769C142.782 23.6932 141.77 23.0564 141.2 22.0796L132.977 7.95862C132.429 7.01992 131.569 6.87785 131.1 6.87785Z" fill="#371A45"/>
</svg>
